<svg width="1200" height="400" viewBox="0 0 1200 400" fill="none" xmlns="http://www.w3.org/2000/svg">
<g clip-path="url(#clip0_21_68)">
<rect width="1200" height="400" fill="white"/>
<path d="M437.806 215.627H448.328V245.395C448.328 255.132 443.604 260 434.154 260H432.236C422.787 260 418.041 255.132 418 245.395V154.544C418 144.807 422.745 139.959 432.236 140H434.154C443.604 140 448.328 144.848 448.328 154.544V184.312H437.806V155.967C437.806 152.336 436.238 150.521 433.102 150.521C430.049 150.521 428.522 152.336 428.522 155.967V244.033C428.522 247.664 430.049 249.479 433.102 249.479C436.238 249.479 437.806 247.664 437.806 244.033V215.627Z" fill="black"/>
<path d="M482.658 141.609H493.18V245.395C493.18 255.132 488.455 260 479.006 260H477.087C467.638 260 462.893 255.132 462.851 245.395V141.609H473.373V244.033C473.373 247.664 474.9 249.479 477.954 249.479C481.09 249.479 482.658 247.664 482.658 244.033V141.609Z" fill="black"/>
<path d="M527.509 141.609V152.13L518.101 249.479H527.509V260H507.703V249.479L516.987 152.13H507.703V141.609H527.509Z" fill="black"/>
<path d="M564.128 199.907C567.429 204.652 569.616 208.675 570.689 211.975C571.803 215.276 572.36 219.711 572.36 225.281V260H561.962L561.838 223.734C561.838 220.681 561.529 218.123 560.91 216.06C560.332 213.997 559.197 211.707 557.506 209.19C555.566 212.161 554.246 214.74 553.544 216.926C552.884 219.113 552.554 221.939 552.554 225.405V260H542.032V141.609H552.554V197.741C558.743 190.892 561.838 183.672 561.838 176.081L561.962 141.609H572.36V174.595C572.36 180.165 571.803 184.6 570.689 187.901C569.616 191.161 567.429 195.163 564.128 199.907Z" fill="black"/>
<path d="M606.937 141.609H617.212V260H606.937L596.91 194.956V260H586.883V141.609H596.91L606.937 205.601V141.609Z" fill="black"/>
<path d="M647.889 140C657.338 140 662.063 144.848 662.063 154.544V245.395C662.063 255.132 657.338 260 647.889 260H649.993H645.97C636.521 260 631.776 255.132 631.734 245.395V154.544C631.734 144.807 636.48 139.959 645.97 140H647.889ZM651.541 244.033V155.967C651.541 152.336 649.973 150.521 646.837 150.521C643.783 150.521 642.257 152.336 642.257 155.967V244.033C642.257 247.664 643.783 249.479 646.837 249.479C649.973 249.479 651.541 247.664 651.541 244.033Z" fill="black"/>
<path d="M704.315 141.609V152.13H694.411V260H683.889V152.13H673.986V141.609H704.315Z" fill="black"/>
<path d="M728.617 141.609V197.741C728.699 197.659 729.133 197.122 729.917 196.132C733.3 191.47 735.487 187.881 736.478 185.364C737.509 182.806 738.025 179.505 738.025 175.462V141.609H748.547V260H738.025V202.94C737.942 203.105 737.798 203.352 737.592 203.682C737.385 203.971 737.2 204.198 737.035 204.363C733.651 209.025 731.423 212.594 730.35 215.07C729.277 217.545 728.741 220.743 728.741 224.662L728.617 260H718.219V141.609H728.617Z" fill="black"/>
<path d="M783 141.609V152.13L773.592 249.479H783V260H763.194V249.479L772.478 152.13H763.194V141.609H783Z" fill="black"/>
<mask id="mask0_21_68" style="mask-type:luminance" maskUnits="userSpaceOnUse" x="0" y="0" width="1200" height="400">
<path d="M1200 0H0V400H1200V0Z" fill="black"/>
<path d="M437.806 215.627H448.328V245.395C448.328 255.132 443.604 260 434.154 260H432.236C422.787 260 418.041 255.132 418 245.395V154.544C418 144.807 422.745 139.959 432.236 140H434.154C443.604 140 448.328 144.848 448.328 154.544V184.312H437.806V155.967C437.806 152.336 436.238 150.521 433.102 150.521C430.049 150.521 428.522 152.336 428.522 155.967V244.033C428.522 247.664 430.049 249.479 433.102 249.479C436.238 249.479 437.806 247.664 437.806 244.033V215.627Z" fill="white"/>
<path d="M482.658 141.609H493.18V245.395C493.18 255.132 488.455 260 479.006 260H477.087C467.638 260 462.893 255.132 462.851 245.395V141.609H473.373V244.033C473.373 247.664 474.9 249.479 477.954 249.479C481.09 249.479 482.658 247.664 482.658 244.033V141.609Z" fill="white"/>
<path d="M527.509 141.609V152.13L518.101 249.479H527.509V260H507.703V249.479L516.987 152.13H507.703V141.609H527.509Z" fill="white"/>
<path d="M564.128 199.907C567.429 204.652 569.616 208.675 570.689 211.975C571.803 215.276 572.36 219.711 572.36 225.281V260H561.962L561.838 223.734C561.838 220.681 561.529 218.123 560.91 216.06C560.332 213.997 559.197 211.707 557.506 209.19C555.566 212.161 554.246 214.74 553.544 216.926C552.884 219.113 552.554 221.939 552.554 225.405V260H542.032V141.609H552.554V197.741C558.743 190.892 561.838 183.672 561.838 176.081L561.962 141.609H572.36V174.595C572.36 180.165 571.803 184.6 570.689 187.901C569.616 191.161 567.429 195.163 564.128 199.907Z" fill="white"/>
<path d="M606.937 141.609H617.212V260H606.937L596.91 194.956V260H586.883V141.609H596.91L606.937 205.601V141.609Z" fill="white"/>
<path d="M647.889 140C657.338 140 662.063 144.848 662.063 154.544V245.395C662.063 255.132 657.338 260 647.889 260H649.993H645.97C636.521 260 631.776 255.132 631.734 245.395V154.544C631.734 144.807 636.48 139.959 645.97 140H647.889ZM651.541 244.033V155.967C651.541 152.336 649.973 150.521 646.837 150.521C643.783 150.521 642.257 152.336 642.257 155.967V244.033C642.257 247.664 643.783 249.479 646.837 249.479C649.973 249.479 651.541 247.664 651.541 244.033Z" fill="white"/>
<path d="M704.315 141.609V152.13H694.411V260H683.889V152.13H673.986V141.609H704.315Z" fill="white"/>
<path d="M728.617 141.609V197.741C728.699 197.659 729.133 197.122 729.917 196.132C733.3 191.47 735.487 187.881 736.478 185.364C737.509 182.806 738.025 179.505 738.025 175.462V141.609H748.547V260H738.025V202.94C737.942 203.105 737.798 203.352 737.592 203.682C737.385 203.971 737.2 204.198 737.035 204.363C733.651 209.025 731.423 212.594 730.35 215.07C729.277 217.545 728.741 220.743 728.741 224.662L728.617 260H718.219V141.609H728.617Z" fill="white"/>
<path d="M783 141.609V152.13L773.592 249.479H783V260H763.194V249.479L772.478 152.13H763.194V141.609H783Z" fill="white"/>
</mask>
<g mask="url(#mask0_21_68)">
<path d="M1200 0H0V400H1200V0Z" fill="#31343A"/>
<path d="M53.2 -73.5C68 -62.5 78.4 -45.7 83.7 -27.6C89 -9.6 89.1 9.7 83.3 26.9C77.5 44.1 65.8 59.3 50.9 68.6C36.1 77.9 18 81.4 1.10003 79.8C-15.8 78.3 -31.6 71.7 -46 62.3C-60.4 52.8 -73.5 40.5 -79.6 25C-85.8 9.6 -85.1 -8.89999 -77.8 -23.4C-70.5 -38 -56.7 -48.5 -42.7 -59.8C-28.6 -71.1 -14.3 -83.2 2.40002 -86.5C19.2 -89.9 38.4 -84.6 53.2 -73.5Z" fill="black"/>
<path d="M54.2 -72.6C70 -63.1 82.5 -47 85 -29.8C87.6 -12.7 80.2 5.5 71.1 19.8C61.9 34.2 51 44.6 38.8 52.6C26.7 60.5 13.4 65.9 0.100006 65.7C-13.1 65.5 -26.1 59.7 -38.5 51.9C-50.8 44 -62.4 34 -69.5 20.6C-76.7 7.1 -79.4 -9.8 -75.9 -25.9C-72.4 -42 -62.6 -57.4 -48.9 -67.6C-35.2 -77.8 -17.6 -82.9 0.800011 -84C19.2 -85 38.4 -82.1 54.2 -72.6Z" fill="black"/>
<path d="M45.5 -64.7C58.1 -53.6 66.6 -39 73.8 -22.6C81 -6.2 86.9 11.9 80.6 24.6C74.3 37.2 55.8 44.3 40.3 48.4C24.9 52.6 12.4 53.8 -2.99995 57.9C-18.5 62 -36.9 69.1 -50.2 64.3C-63.5 59.5 -71.7 42.7 -71.7 27C-71.7 11.3 -63.6 -3.4 -59 -19.7C-54.4 -36 -53.4 -54 -44.1 -66.2C-34.9 -78.4 -17.4 -84.8 -0.499954 -84.2C16.5 -83.5 33 -75.8 45.5 -64.7Z" fill="black"/>
<path d="M51.2 -66.4C64.9 -60.6 73.5 -43.6 79.3 -25.7C85.2 -7.90001 88.3 10.9 83.9 28.1C79.5 45.3 67.5 60.8 52.2 70.4C37 80.1 18.5 83.8 4.10003 78.2C-10.4 72.6 -20.7 57.7 -31.2 46.5C-41.6 35.3 -52.1 27.8 -60.6 16.2C-69.2 4.6 -75.8 -11.1 -71.7 -23.2C-67.7 -35.4 -53 -44 -39.3 -49.8C-25.5 -55.6 -12.8 -58.4 3.00003 -62.6C18.8 -66.7 37.6 -72.2 51.2 -66.4Z" fill="black"/>
</g>
<path d="M60 66V46.12H68.512C69.3464 46.1102 70.1714 46.2972 70.92 46.666C71.6404 47.0257 72.2853 47.5199 72.82 48.122C73.3579 48.7232 73.7846 49.4153 74.08 50.166C74.3745 50.9006 74.5266 51.6845 74.528 52.476C74.5316 53.3686 74.3554 54.2529 74.01 55.076C73.6817 55.8728 73.185 56.5891 72.554 57.176C71.9311 57.7516 71.1752 58.1639 70.354 58.376L75.176 66H72.32L67.784 58.86H62.52V66H60ZM62.52 56.62H68.54C69.1889 56.6334 69.8239 56.4316 70.346 56.046C70.8697 55.6481 71.2828 55.1227 71.546 54.52C71.8369 53.8781 71.985 53.1807 71.98 52.476C71.9884 51.7589 71.8165 51.0513 71.48 50.418C71.1685 49.8194 70.717 49.3048 70.164 48.918C69.6393 48.5499 69.013 48.3542 68.372 48.358H62.52V56.62ZM92.452 63.76V66H78.952V46.12H92.2V48.36H81.476V54.8H90.8V56.9H81.476V63.76H92.452ZM102.504 46.12H104.632L112.752 66H110.064L107.834 60.176H99.283L97.044 66H94.356L102.504 46.12ZM107.084 58.22L103.568 49.036L100.037 58.216L107.084 58.22ZM115.972 66V46.12H122.86C124.728 46.053 126.576 46.5139 128.194 47.45C129.592 48.3032 130.707 49.5499 131.4 51.034C132.123 52.6004 132.487 54.3088 132.464 56.034C132.508 57.8591 132.104 59.6671 131.288 61.3C130.539 62.757 129.381 63.9636 127.956 64.772C126.395 65.6227 124.637 66.0463 122.86 66H115.972ZM129.92 56.032C129.946 54.6615 129.664 53.3027 129.094 52.056C128.577 50.9371 127.745 49.9932 126.7 49.34C125.54 48.6562 124.21 48.3163 122.864 48.36H118.492V63.76H122.86C124.219 63.8054 125.561 63.45 126.72 62.738C127.762 62.0605 128.588 61.0985 129.1 59.966C129.659 58.7307 129.939 57.3876 129.92 56.032ZM153.772 66V50.824L147.22 62.5H145.68L139.1 50.824V66H136.58V46.12H139.24L146.44 59.028L153.66 46.12H156.292V66H153.772ZM175.108 63.76V66H161.608V46.12H174.852V48.36H164.132V54.8H173.456V56.9H164.132V63.76H175.108ZM178.52 66V62.864H180.592V66H178.52ZM206.968 66H204.504V57.9C204.588 56.7323 204.331 55.5654 203.762 54.542C203.52 54.1873 203.19 53.9013 202.804 53.7117C202.419 53.5222 201.991 53.4354 201.562 53.46C200.563 53.4634 199.603 53.845 198.874 54.528C198.054 55.2679 197.462 56.2259 197.166 57.29V66H194.702V57.9C194.789 56.7294 194.536 55.5585 193.974 54.528C193.733 54.1765 193.405 53.8935 193.023 53.7063C192.64 53.5191 192.215 53.4343 191.79 53.46C190.802 53.4667 189.85 53.8361 189.116 54.498C188.282 55.2247 187.682 56.1829 187.394 57.251V66H184.93V51.468H187.17V54.607C187.714 53.5892 188.515 52.7318 189.494 52.12C190.464 51.5316 191.58 51.2284 192.714 51.245C193.775 51.192 194.816 51.5449 195.626 52.232C196.358 52.8963 196.833 53.7962 196.97 54.775C197.538 53.7194 198.355 52.8181 199.35 52.149C200.303 51.5425 201.413 51.2295 202.542 51.249C203.274 51.2245 204 51.3819 204.656 51.707C205.215 52.0032 205.684 52.4447 206.014 52.985C206.369 53.5807 206.615 54.2344 206.742 54.916C206.897 55.7123 206.972 56.5219 206.966 57.333L206.968 66ZM210.42 58.776C210.405 57.471 210.697 56.1808 211.274 55.01C211.807 53.9107 212.615 52.9676 213.62 52.272C214.63 51.5832 215.828 51.2241 217.05 51.244C218.173 51.2285 219.276 51.5504 220.214 52.168C221.103 52.7385 221.85 53.5047 222.398 54.408V45.56H224.862V63.2C224.843 63.434 224.907 63.6672 225.044 63.858C225.123 63.9354 225.217 63.9963 225.32 64.0372C225.423 64.078 225.533 64.098 225.644 64.096V66C225.283 66.0644 224.918 66.1018 224.552 66.112C224.078 66.1175 223.621 65.9382 223.278 65.612C223.112 65.4753 222.977 65.3046 222.883 65.1114C222.789 64.9181 222.737 64.7069 222.732 64.492V63.256C222.161 64.1815 221.361 64.9436 220.408 65.468C219.487 65.996 218.445 66.2758 217.384 66.28C216.422 66.2893 215.471 66.0844 214.598 65.68C213.755 65.2863 213.002 64.7232 212.386 64.026C211.76 63.3206 211.266 62.5075 210.93 61.626C210.585 60.7157 210.412 59.7494 210.42 58.776ZM222.4 60.91V56.753C222.166 56.1124 221.793 55.5317 221.308 55.053C220.816 54.5539 220.243 54.1417 219.614 53.834C219.037 53.5409 218.399 53.3845 217.752 53.377C217.067 53.367 216.389 53.5238 215.778 53.834C215.196 54.1335 214.682 54.5482 214.266 55.053C213.842 55.5675 213.515 56.1542 213.3 56.785C213.075 57.4357 212.962 58.1196 212.964 58.808C212.96 59.5093 213.089 60.205 213.342 60.859C213.586 61.4931 213.947 62.0758 214.406 62.577C214.855 63.0694 215.399 63.4654 216.006 63.741C216.626 64.0209 217.3 64.1628 217.98 64.157C218.453 64.1527 218.921 64.0686 219.366 63.908C219.847 63.737 220.302 63.5022 220.72 63.21C221.138 62.9253 221.507 62.5743 221.812 62.171C222.099 61.7993 222.3 61.3686 222.4 60.91Z" fill="black"/>
<path d="M236.48 62.4727C236.48 61.8984 236.689 61.4453 237.107 61.1133C237.529 60.7773 238.104 60.6094 238.83 60.6094H241.051V61.4414H239.961C240.172 61.6562 240.318 61.8516 240.4 62.0273C240.482 62.2031 240.523 62.4043 240.523 62.6309C240.523 62.9121 240.443 63.1895 240.283 63.4629C240.123 63.7324 239.916 63.9395 239.662 64.084C239.412 64.2285 239 64.3438 238.426 64.4297C238.023 64.4883 237.822 64.627 237.822 64.8457C237.822 64.9707 237.896 65.0742 238.045 65.1562C238.197 65.2344 238.471 65.3164 238.865 65.4023C239.525 65.5469 239.949 65.6602 240.137 65.7422C240.328 65.8242 240.5 65.9414 240.652 66.0938C240.91 66.3516 241.039 66.6758 241.039 67.0664C241.039 67.5781 240.811 67.9863 240.354 68.291C239.9 68.5957 239.293 68.748 238.531 68.748C237.762 68.748 237.146 68.5938 236.686 68.2852C236.229 67.9805 236 67.5703 236 67.0547C236 66.3242 236.451 65.8535 237.354 65.6426C236.994 65.4121 236.814 65.1836 236.814 64.957C236.814 64.7852 236.891 64.6289 237.043 64.4883C237.199 64.3477 237.408 64.2441 237.67 64.1777C236.877 63.8262 236.48 63.2578 236.48 62.4727ZM238.484 61.5352C238.195 61.5352 237.949 61.6328 237.746 61.8281C237.543 62.0234 237.441 62.2578 237.441 62.5312C237.441 62.8086 237.541 63.0391 237.74 63.2227C237.939 63.4023 238.191 63.4922 238.496 63.4922C238.797 63.4922 239.047 63.4004 239.246 63.2168C239.449 63.0293 239.551 62.7969 239.551 62.5195C239.551 62.2383 239.449 62.0039 239.246 61.8164C239.043 61.6289 238.789 61.5352 238.484 61.5352ZM238.232 66.252C237.873 66.252 237.578 66.3281 237.348 66.4805C237.121 66.6328 237.008 66.8281 237.008 67.0664C237.008 67.6211 237.508 67.8984 238.508 67.8984C238.98 67.8984 239.346 67.8281 239.604 67.6875C239.865 67.5508 239.996 67.3555 239.996 67.1016C239.996 66.8516 239.832 66.6465 239.504 66.4863C239.176 66.3301 238.752 66.252 238.232 66.252Z" fill="black" fill-opacity="0.5"/>
<path d="M242.428 58.3418C242.604 58.3418 242.754 58.4023 242.879 58.5234C243.004 58.6445 243.066 58.793 243.066 58.9688C243.066 59.1406 243.004 59.2891 242.879 59.4141C242.754 59.5391 242.604 59.6016 242.428 59.6016C242.264 59.6016 242.119 59.5391 241.994 59.4141C241.869 59.2852 241.807 59.1367 241.807 58.9688C241.807 58.8047 241.869 58.6602 241.994 58.5352C242.119 58.4062 242.264 58.3418 242.428 58.3418ZM241.9 60.6094H242.967V66H241.9V60.6094Z" fill="black" fill-opacity="0.5"/>
<path d="M243.758 61.4648L245.762 59.4961V60.6094H247.467V61.5703H245.762V64.2129C245.762 64.8301 246.018 65.1387 246.529 65.1387C246.912 65.1387 247.316 65.0098 247.742 64.752V65.748C247.332 65.9785 246.885 66.0938 246.4 66.0938C245.912 66.0938 245.506 65.9512 245.182 65.666C245.08 65.5801 244.996 65.4844 244.93 65.3789C244.863 65.2695 244.807 65.1289 244.76 64.957C244.717 64.7812 244.695 64.4492 244.695 63.9609V61.5703H243.758V61.4648Z" fill="black" fill-opacity="0.5"/>
<path d="M248.486 57.8145H249.553V61.3184C249.998 60.7754 250.551 60.5039 251.211 60.5039C251.57 60.5039 251.893 60.5938 252.178 60.7734C252.463 60.9531 252.674 61.2012 252.811 61.5176C252.951 61.834 253.021 62.3047 253.021 62.9297V66H251.955V62.666C251.955 62.2715 251.857 61.9551 251.662 61.7168C251.471 61.4746 251.217 61.3535 250.9 61.3535C250.666 61.3535 250.445 61.4141 250.238 61.5352C250.031 61.6562 249.803 61.8574 249.553 62.1387V66H248.486V57.8145Z" fill="black" fill-opacity="0.5"/>
<path d="M257.943 66V65.3145C257.717 65.5605 257.457 65.752 257.164 65.8887C256.875 66.0254 256.586 66.0938 256.297 66.0938C255.957 66.0938 255.643 66.0098 255.354 65.8418C255.068 65.6699 254.852 65.4395 254.703 65.1504C254.559 64.8574 254.486 64.373 254.486 63.6973V60.6094H255.553V63.6855C255.553 64.252 255.633 64.6484 255.793 64.875C255.957 65.0977 256.242 65.209 256.648 65.209C257.156 65.209 257.588 64.9609 257.943 64.4648V60.6094H259.01V66H257.943Z" fill="black" fill-opacity="0.5"/>
<path d="M260.463 57.8145H261.529V60.9961C261.99 60.6602 262.482 60.4922 263.006 60.4922C263.689 60.4922 264.248 60.75 264.682 61.2656C265.115 61.7812 265.332 62.4434 265.332 63.252C265.332 64.1191 265.072 64.8105 264.553 65.3262C264.037 65.8379 263.346 66.0938 262.479 66.0938C262.131 66.0938 261.764 66.0566 261.377 65.9824C260.994 65.9082 260.689 65.8145 260.463 65.7012V57.8145ZM261.529 62.0156V64.9336C261.893 65.043 262.266 65.0977 262.648 65.0977C263.121 65.0977 263.506 64.9297 263.803 64.5938C264.104 64.2578 264.254 63.8262 264.254 63.2988C264.254 62.7637 264.113 62.3281 263.832 61.9922C263.555 61.6562 263.191 61.4883 262.742 61.4883C262.344 61.4883 261.939 61.6641 261.529 62.0156Z" fill="black" fill-opacity="0.5"/>
<path d="M266.943 64.6934C267.143 64.6934 267.312 64.7617 267.453 64.8984C267.594 65.0352 267.664 65.2031 267.664 65.4023C267.664 65.5977 267.594 65.7617 267.453 65.8945C267.316 66.0273 267.146 66.0938 266.943 66.0938C266.744 66.0938 266.576 66.0273 266.439 65.8945C266.303 65.7617 266.234 65.5977 266.234 65.4023C266.234 65.2031 266.303 65.0352 266.439 64.8984C266.576 64.7617 266.744 64.6934 266.943 64.6934Z" fill="black" fill-opacity="0.5"/>
<path d="M273.072 64.7402V65.7949C272.537 65.9941 272.014 66.0938 271.502 66.0938C270.658 66.0938 269.984 65.8438 269.48 65.3438C268.98 64.8438 268.73 64.1738 268.73 63.334C268.73 62.4863 268.975 61.8027 269.463 61.2832C269.951 60.7637 270.594 60.5039 271.391 60.5039C271.668 60.5039 271.916 60.5312 272.135 60.5859C272.357 60.6367 272.631 60.7344 272.955 60.8789V62.0156C272.416 61.6719 271.916 61.5 271.455 61.5C270.975 61.5 270.58 61.6699 270.271 62.0098C269.963 62.3457 269.809 62.7754 269.809 63.2988C269.809 63.8496 269.975 64.2871 270.307 64.6113C270.643 64.9355 271.094 65.0977 271.66 65.0977C272.07 65.0977 272.541 64.9785 273.072 64.7402Z" fill="black" fill-opacity="0.5"/>
<path d="M276.869 60.5977C277.689 60.5977 278.371 60.8633 278.914 61.3945C279.457 61.9219 279.729 62.5859 279.729 63.3867C279.729 64.1641 279.453 64.8105 278.902 65.3262C278.352 65.8379 277.658 66.0938 276.822 66.0938C276.014 66.0938 275.338 65.834 274.795 65.3145C274.252 64.791 273.98 64.1387 273.98 63.3574C273.98 62.5684 274.254 61.9121 274.801 61.3887C275.352 60.8613 276.041 60.5977 276.869 60.5977ZM276.811 61.5586C276.299 61.5586 275.879 61.7266 275.551 62.0625C275.223 62.3984 275.059 62.8262 275.059 63.3457C275.059 63.8613 275.227 64.2832 275.562 64.6113C275.898 64.9355 276.33 65.0977 276.857 65.0977C277.381 65.0977 277.809 64.9336 278.141 64.6055C278.477 64.2734 278.645 63.8496 278.645 63.334C278.645 62.8223 278.471 62.3984 278.123 62.0625C277.775 61.7266 277.338 61.5586 276.811 61.5586Z" fill="black" fill-opacity="0.5"/>
<path d="M285.33 62.0859V66H284.258V63C284.258 62.4023 284.178 61.9863 284.018 61.752C283.857 61.5137 283.578 61.3945 283.18 61.3945C282.957 61.3945 282.752 61.4453 282.564 61.5469C282.381 61.6484 282.17 61.8281 281.932 62.0859V66H280.865V60.6094H281.932V61.3184C282.475 60.7754 283.006 60.5039 283.525 60.5039C284.209 60.5039 284.738 60.8281 285.113 61.4766C285.684 60.8203 286.279 60.4922 286.9 60.4922C287.424 60.4922 287.854 60.6836 288.189 61.0664C288.529 61.4492 288.699 62.0332 288.699 62.8184V66H287.633V62.8066C287.633 62.3574 287.541 62.0137 287.357 61.7754C287.174 61.5371 286.91 61.418 286.566 61.418C286.125 61.418 285.713 61.6406 285.33 62.0859Z" fill="black" fill-opacity="0.5"/>
<path d="M289.443 66.1055L291.799 57.7031H292.643L290.293 66.1055H289.443Z" fill="black" fill-opacity="0.5"/>
<path d="M297.588 64.7402V65.7949C297.053 65.9941 296.529 66.0938 296.018 66.0938C295.174 66.0938 294.5 65.8438 293.996 65.3438C293.496 64.8438 293.246 64.1738 293.246 63.334C293.246 62.4863 293.49 61.8027 293.979 61.2832C294.467 60.7637 295.109 60.5039 295.906 60.5039C296.184 60.5039 296.432 60.5312 296.65 60.5859C296.873 60.6367 297.146 60.7344 297.471 60.8789V62.0156C296.932 61.6719 296.432 61.5 295.971 61.5C295.49 61.5 295.096 61.6699 294.787 62.0098C294.479 62.3457 294.324 62.7754 294.324 63.2988C294.324 63.8496 294.49 64.2871 294.822 64.6113C295.158 64.9355 295.609 65.0977 296.176 65.0977C296.586 65.0977 297.057 64.9785 297.588 64.7402Z" fill="black" fill-opacity="0.5"/>
<path d="M302.24 66V65.3145C302.014 65.5605 301.754 65.752 301.461 65.8887C301.172 66.0254 300.883 66.0938 300.594 66.0938C300.254 66.0938 299.939 66.0098 299.65 65.8418C299.365 65.6699 299.148 65.4395 299 65.1504C298.855 64.8574 298.783 64.373 298.783 63.6973V60.6094H299.85V63.6855C299.85 64.252 299.93 64.6484 300.09 64.875C300.254 65.0977 300.539 65.209 300.945 65.209C301.453 65.209 301.885 64.9609 302.24 64.4648V60.6094H303.307V66H302.24Z" fill="black" fill-opacity="0.5"/>
<path d="M304.303 60.6094H308.908L306.055 65.0039H308.908V66H304.186L307.016 61.6055H304.303V60.6094Z" fill="black" fill-opacity="0.5"/>
<path d="M313.314 60.6094H314.586L312.283 63.252L315.055 66H313.625L310.924 63.252L313.314 60.6094ZM309.811 57.8145H310.877V66H309.811V57.8145Z" fill="black" fill-opacity="0.5"/>
<path d="M316.631 60.6094V61.2949C317.107 60.7676 317.648 60.5039 318.254 60.5039C318.59 60.5039 318.902 60.5918 319.191 60.7676C319.48 60.9395 319.699 61.1777 319.848 61.4824C320 61.7832 320.076 62.2617 320.076 62.918V66H319.01V62.9297C319.01 62.3789 318.926 61.9863 318.758 61.752C318.59 61.5137 318.309 61.3945 317.914 61.3945C317.41 61.3945 316.982 61.6465 316.631 62.1504V66H315.541V60.6094H316.631Z" fill="black" fill-opacity="0.5"/>
<path d="M324.143 60.5977C324.963 60.5977 325.645 60.8633 326.188 61.3945C326.73 61.9219 327.002 62.5859 327.002 63.3867C327.002 64.1641 326.727 64.8105 326.176 65.3262C325.625 65.8379 324.932 66.0938 324.096 66.0938C323.287 66.0938 322.611 65.834 322.068 65.3145C321.525 64.791 321.254 64.1387 321.254 63.3574C321.254 62.5684 321.527 61.9121 322.074 61.3887C322.625 60.8613 323.314 60.5977 324.143 60.5977ZM324.084 61.5586C323.572 61.5586 323.152 61.7266 322.824 62.0625C322.496 62.3984 322.332 62.8262 322.332 63.3457C322.332 63.8613 322.5 64.2832 322.836 64.6113C323.172 64.9355 323.604 65.0977 324.131 65.0977C324.654 65.0977 325.082 64.9336 325.414 64.6055C325.75 64.2734 325.918 63.8496 325.918 63.334C325.918 62.8223 325.744 62.3984 325.396 62.0625C325.049 61.7266 324.611 61.5586 324.084 61.5586Z" fill="black" fill-opacity="0.5"/>
<path d="M327.43 61.4648L329.434 59.4961V60.6094H331.139V61.5703H329.434V64.2129C329.434 64.8301 329.689 65.1387 330.201 65.1387C330.584 65.1387 330.988 65.0098 331.414 64.752V65.748C331.004 65.9785 330.557 66.0938 330.072 66.0938C329.584 66.0938 329.178 65.9512 328.854 65.666C328.752 65.5801 328.668 65.4844 328.602 65.3789C328.535 65.2695 328.479 65.1289 328.432 64.957C328.389 64.7812 328.367 64.4492 328.367 63.9609V61.5703H327.43V61.4648Z" fill="black" fill-opacity="0.5"/>
<path d="M332.158 57.8145H333.225V61.3184C333.67 60.7754 334.223 60.5039 334.883 60.5039C335.242 60.5039 335.564 60.5938 335.85 60.7734C336.135 60.9531 336.346 61.2012 336.482 61.5176C336.623 61.834 336.693 62.3047 336.693 62.9297V66H335.627V62.666C335.627 62.2715 335.529 61.9551 335.334 61.7168C335.143 61.4746 334.889 61.3535 334.572 61.3535C334.338 61.3535 334.117 61.4141 333.91 61.5352C333.703 61.6562 333.475 61.8574 333.225 62.1387V66H332.158V57.8145Z" fill="black" fill-opacity="0.5"/>
<path d="M337.678 60.6094H342.283L339.43 65.0039H342.283V66H337.561L340.391 61.6055H337.678V60.6094Z" fill="black" fill-opacity="0.5"/>
<path d="M60 138V125.22H68.442V126.66H61.62V130.926H67.362V132.276H61.62V138H60ZM76.128 138.09C75.2401 138.118 74.3582 137.936 73.554 137.559C72.8839 137.227 72.3081 136.732 71.88 136.119C71.4513 135.494 71.1402 134.795 70.962 134.058C70.7675 133.281 70.6695 132.483 70.67 131.682V125.22H72.29V131.682C72.289 132.296 72.3523 132.908 72.479 133.509C72.5942 134.071 72.8057 134.61 73.104 135.1C73.3895 135.567 73.7913 135.952 74.27 136.218C74.8362 136.512 75.4686 136.654 76.106 136.632C76.7504 136.656 77.3896 136.51 77.96 136.209C78.4409 135.938 78.8438 135.547 79.13 135.075C79.4252 134.583 79.6351 134.044 79.751 133.482C79.8774 132.89 79.9407 132.287 79.94 131.682V125.22H81.56V131.682C81.5634 132.51 81.4626 133.336 81.26 134.139C81.0798 134.875 80.7589 135.568 80.315 136.182C79.8759 136.778 79.2982 137.259 78.632 137.582C77.8475 137.942 76.9906 138.116 76.128 138.09ZM84.804 138V125.22H86.424V136.56H93.552V138H84.804ZM95.676 138V125.22H97.296V136.56H104.424V138H95.676ZM114.054 127.9C113.886 127.712 113.692 127.548 113.478 127.414C113.221 127.249 112.95 127.108 112.668 126.991C112.351 126.86 112.023 126.757 111.687 126.685C111.323 126.606 110.952 126.567 110.58 126.568C109.813 126.508 109.047 126.703 108.402 127.124C108.173 127.304 107.99 127.537 107.868 127.802C107.746 128.067 107.689 128.358 107.702 128.649C107.68 129.041 107.809 129.426 108.062 129.726C108.371 130.031 108.752 130.253 109.169 130.372C109.667 130.539 110.3 130.713 111.069 130.892C111.856 131.053 112.626 131.287 113.369 131.592C113.955 131.82 114.471 132.2 114.863 132.692C115.235 133.231 115.418 133.877 115.385 134.531C115.399 135.081 115.278 135.626 115.034 136.119C114.803 136.565 114.466 136.947 114.053 137.232C113.605 137.537 113.105 137.756 112.577 137.878C111.976 138.022 111.36 138.093 110.742 138.09C110.103 138.091 109.466 138.022 108.842 137.883C108.236 137.75 107.647 137.549 107.087 137.283C106.533 137.017 106.013 136.685 105.539 136.293L106.313 134.925C106.537 135.154 106.788 135.355 107.06 135.525C107.392 135.737 107.741 135.92 108.104 136.074C108.514 136.247 108.938 136.38 109.373 136.474C109.833 136.576 110.302 136.628 110.773 136.627C111.514 136.669 112.251 136.498 112.897 136.134C113.139 135.984 113.337 135.772 113.471 135.52C113.605 135.268 113.669 134.985 113.658 134.7C113.668 134.49 113.636 134.28 113.563 134.083C113.491 133.885 113.379 133.704 113.235 133.551C112.878 133.22 112.45 132.974 111.984 132.833C111.432 132.642 110.76 132.45 109.968 132.259C109.224 132.083 108.495 131.846 107.79 131.55C107.264 131.339 106.808 130.987 106.47 130.533C106.156 130.048 106.001 129.477 106.026 128.9C106.003 128.167 106.211 127.445 106.62 126.836C107.031 126.262 107.6 125.819 108.258 125.562C109.008 125.265 109.809 125.118 110.616 125.131C111.158 125.127 111.699 125.188 112.227 125.311C112.711 125.424 113.181 125.592 113.627 125.811C114.052 126.022 114.45 126.282 114.815 126.585L114.054 127.9ZM127.086 126.66H122.676V138H121.056V126.66H116.646V125.22H127.086V126.66ZM131.964 125.22H133.332L138.552 138H136.824L135.39 134.256H129.89L128.454 138H126.726L131.964 125.22ZM134.908 133L132.648 127.1L130.378 133H134.908ZM139.326 131.5C139.325 130.718 139.46 129.941 139.726 129.205C139.996 128.455 140.398 127.76 140.914 127.153C141.441 126.531 142.095 126.028 142.831 125.677C143.636 125.3 144.516 125.113 145.405 125.128C146.438 125.099 147.458 125.371 148.339 125.911C149.122 126.396 149.752 127.091 150.157 127.918L148.879 128.746C148.66 128.249 148.331 127.809 147.916 127.459C147.546 127.152 147.117 126.922 146.656 126.784C146.227 126.654 145.781 126.587 145.333 126.584C144.68 126.571 144.034 126.72 143.452 127.016C142.917 127.298 142.449 127.692 142.08 128.172C141.707 128.654 141.423 129.2 141.243 129.783C141.059 130.362 140.965 130.966 140.964 131.574C140.962 132.225 141.075 132.87 141.297 133.482C141.507 134.073 141.821 134.622 142.224 135.102C142.611 135.564 143.088 135.943 143.624 136.218C144.17 136.496 144.775 136.637 145.388 136.632C145.855 136.629 146.318 136.551 146.76 136.4C147.237 136.237 147.681 135.99 148.07 135.669C148.491 135.322 148.824 134.881 149.042 134.382L150.392 135.12C150.129 135.755 149.708 136.313 149.17 136.74C148.62 137.183 147.996 137.524 147.327 137.748C146.681 137.971 146.003 138.086 145.32 138.09C144.482 138.099 143.654 137.904 142.908 137.523C142.181 137.149 141.535 136.636 141.008 136.011C140.475 135.38 140.056 134.661 139.77 133.887C139.479 133.125 139.329 132.316 139.326 131.5ZM152.79 138V125.22H154.41V132.286L160.998 125.202H162.744L157.614 130.844L163.032 138H161.214L156.588 131.817L154.41 134.088V138H152.79ZM173.47 125.238H176.188L177.52 129.324L178.852 125.238H181.588L179.41 131.178L180.71 134.578L183.91 125.218H187.132L182.148 138H179.592L177.522 133L175.47 138H172.896L167.928 125.22H171.128L174.35 134.58L175.61 131.18L173.47 125.238ZM197.57 135.444L197.592 138H188.628L188.61 125.22H197.41L197.428 127.812L191.542 127.776L191.56 130.296L196.582 130.314L196.6 132.69H191.542L191.56 135.408L197.57 135.444ZM210.314 134.724C210.338 135.383 210.131 136.029 209.729 136.551C209.317 137.053 208.773 137.43 208.158 137.64C207.459 137.887 206.721 138.008 205.98 138H199.752V125.22H206.862C207.419 125.207 207.965 125.374 208.419 125.697C208.856 126.014 209.203 126.439 209.427 126.93C209.658 127.42 209.778 127.955 209.778 128.496C209.777 129.1 209.615 129.693 209.31 130.215C208.997 130.762 208.518 131.194 207.942 131.448C208.63 131.635 209.239 132.039 209.679 132.6C210.125 133.216 210.35 133.964 210.318 134.724H210.314ZM207.308 134.13C207.313 133.878 207.258 133.627 207.146 133.401C207.047 133.203 206.902 133.032 206.723 132.901C206.542 132.773 206.324 132.706 206.102 132.712H202.702V135.5H205.978C206.215 135.504 206.449 135.442 206.653 135.32C206.85 135.201 207.014 135.034 207.13 134.834C207.254 134.62 207.316 134.377 207.312 134.13H207.308ZM202.7 127.74V130.386H205.6C205.809 130.387 206.014 130.337 206.2 130.242C206.391 130.141 206.55 129.988 206.659 129.801C206.787 129.573 206.849 129.315 206.839 129.054C206.848 128.805 206.795 128.558 206.686 128.334C206.595 128.153 206.457 128.001 206.286 127.893C206.112 127.789 205.913 127.736 205.71 127.74H202.7ZM216.978 138V125.22H221.748C222.977 125.176 224.195 125.472 225.267 126.075C226.186 126.619 226.926 127.418 227.4 128.375C227.888 129.375 228.134 130.475 228.12 131.588C228.148 132.765 227.876 133.93 227.328 134.972C226.817 135.915 226.045 136.69 225.105 137.204C224.073 137.753 222.917 138.027 221.748 138H216.978ZM225.114 131.592C225.126 130.914 224.99 130.241 224.714 129.621C224.472 129.074 224.074 128.611 223.57 128.289C223.022 127.959 222.391 127.794 221.752 127.812H219.93V135.412H221.748C222.393 135.433 223.029 135.261 223.575 134.917C224.079 134.58 224.476 134.105 224.718 133.549C224.989 132.933 225.124 132.265 225.114 131.592ZM239.19 135.444L239.208 138H230.244L230.226 125.22H239.026L239.044 127.812L233.158 127.776L233.176 130.296L238.198 130.314L238.216 132.69H233.16L233.178 135.408L239.19 135.444ZM243.222 125.22L246.228 134.544L249.198 125.22H252.312L247.67 138H244.77L240.09 125.22H243.222Z" fill="black"/>
<path d="M60 107H252.5" stroke="black" stroke-width="3"/>
<path d="M798 255H839" stroke="black" stroke-opacity="0.4" stroke-width="10"/>
<path d="M1014.33 359.814H1015.49L1012.18 368.035H1011.93L1009.25 361.379L1006.55 368.035H1006.3L1003 359.814H1004.18L1006.43 365.457L1008.7 359.814H1009.81L1012.09 365.457L1014.33 359.814Z" fill="black"/>
<path d="M1019.78 365.398H1015.98C1016.01 365.914 1016.18 366.324 1016.5 366.629C1016.82 366.934 1017.23 367.086 1017.74 367.086C1018.44 367.086 1019.09 366.867 1019.68 366.43V367.473C1019.35 367.691 1019.03 367.848 1018.7 367.941C1018.38 368.035 1018.01 368.082 1017.57 368.082C1016.98 368.082 1016.5 367.959 1016.13 367.713C1015.76 367.467 1015.47 367.137 1015.25 366.723C1015.03 366.305 1014.92 365.822 1014.92 365.275C1014.92 364.455 1015.15 363.789 1015.62 363.277C1016.08 362.762 1016.68 362.504 1017.43 362.504C1018.14 362.504 1018.71 362.754 1019.14 363.254C1019.56 363.754 1019.78 364.424 1019.78 365.264V365.398ZM1016.01 364.76H1018.72C1018.69 364.334 1018.57 364.006 1018.34 363.775C1018.11 363.545 1017.81 363.43 1017.43 363.43C1017.04 363.43 1016.73 363.545 1016.48 363.775C1016.24 364.006 1016.08 364.334 1016.01 364.76Z" fill="black"/>
<path d="M1020.89 359.814H1021.96V362.996C1022.42 362.66 1022.91 362.492 1023.43 362.492C1024.12 362.492 1024.67 362.75 1025.11 363.266C1025.54 363.781 1025.76 364.443 1025.76 365.252C1025.76 366.119 1025.5 366.811 1024.98 367.326C1024.46 367.838 1023.77 368.094 1022.9 368.094C1022.56 368.094 1022.19 368.057 1021.8 367.982C1021.42 367.908 1021.12 367.814 1020.89 367.701V359.814ZM1021.96 364.016V366.934C1022.32 367.043 1022.69 367.098 1023.07 367.098C1023.55 367.098 1023.93 366.93 1024.23 366.594C1024.53 366.258 1024.68 365.826 1024.68 365.299C1024.68 364.764 1024.54 364.328 1024.26 363.992C1023.98 363.656 1023.62 363.488 1023.17 363.488C1022.77 363.488 1022.37 363.664 1021.96 364.016Z" fill="black"/>
<path d="M1026.67 367.613V366.465C1026.97 366.676 1027.28 366.848 1027.59 366.98C1027.91 367.109 1028.17 367.174 1028.39 367.174C1028.61 367.174 1028.8 367.119 1028.96 367.01C1029.12 366.9 1029.2 366.77 1029.2 366.617C1029.2 366.461 1029.15 366.332 1029.04 366.23C1028.94 366.125 1028.72 365.975 1028.38 365.779C1027.69 365.396 1027.24 365.07 1027.02 364.801C1026.81 364.527 1026.71 364.23 1026.71 363.91C1026.71 363.496 1026.87 363.158 1027.19 362.896C1027.51 362.635 1027.93 362.504 1028.44 362.504C1028.96 362.504 1029.5 362.652 1030.06 362.949V364.004C1029.43 363.621 1028.91 363.43 1028.51 363.43C1028.3 363.43 1028.13 363.475 1028 363.564C1027.88 363.65 1027.81 363.766 1027.81 363.91C1027.81 364.035 1027.87 364.154 1027.98 364.268C1028.1 364.381 1028.3 364.518 1028.59 364.678L1028.97 364.895C1029.87 365.402 1030.32 365.965 1030.32 366.582C1030.32 367.023 1030.15 367.387 1029.8 367.672C1029.46 367.953 1029.01 368.094 1028.47 368.094C1028.15 368.094 1027.87 368.061 1027.62 367.994C1027.37 367.924 1027.05 367.797 1026.67 367.613Z" fill="black"/>
<path d="M1032.1 360.342C1032.28 360.342 1032.43 360.402 1032.55 360.523C1032.68 360.645 1032.74 360.793 1032.74 360.969C1032.74 361.141 1032.68 361.289 1032.55 361.414C1032.43 361.539 1032.28 361.602 1032.1 361.602C1031.94 361.602 1031.79 361.539 1031.67 361.414C1031.54 361.285 1031.48 361.137 1031.48 360.969C1031.48 360.805 1031.54 360.66 1031.67 360.535C1031.79 360.406 1031.94 360.342 1032.1 360.342ZM1031.58 362.609H1032.64V368H1031.58V362.609Z" fill="black"/>
<path d="M1033.43 363.465L1035.44 361.496V362.609H1037.14V363.57H1035.44V366.213C1035.44 366.83 1035.69 367.139 1036.21 367.139C1036.59 367.139 1036.99 367.01 1037.42 366.752V367.748C1037.01 367.979 1036.56 368.094 1036.08 368.094C1035.59 368.094 1035.18 367.951 1034.86 367.666C1034.76 367.58 1034.67 367.484 1034.61 367.379C1034.54 367.27 1034.48 367.129 1034.44 366.957C1034.39 366.781 1034.37 366.449 1034.37 365.961V363.57H1033.43V363.465Z" fill="black"/>
<path d="M1042.78 365.398H1038.99C1039.02 365.914 1039.19 366.324 1039.5 366.629C1039.82 366.934 1040.24 367.086 1040.74 367.086C1041.44 367.086 1042.09 366.867 1042.69 366.43V367.473C1042.36 367.691 1042.03 367.848 1041.71 367.941C1041.39 368.035 1041.01 368.082 1040.58 368.082C1039.98 368.082 1039.5 367.959 1039.13 367.713C1038.77 367.467 1038.47 367.137 1038.25 366.723C1038.03 366.305 1037.92 365.822 1037.92 365.275C1037.92 364.455 1038.15 363.789 1038.62 363.277C1039.08 362.762 1039.69 362.504 1040.43 362.504C1041.14 362.504 1041.71 362.754 1042.14 363.254C1042.57 363.754 1042.78 364.424 1042.78 365.264V365.398ZM1039.01 364.76H1041.72C1041.7 364.334 1041.57 364.006 1041.34 363.775C1041.12 363.545 1040.81 363.43 1040.43 363.43C1040.05 363.43 1039.73 363.545 1039.49 363.775C1039.24 364.006 1039.09 364.334 1039.01 364.76Z" fill="black"/>
<path d="M1044.44 366.67C1044.64 366.67 1044.81 366.74 1044.95 366.881C1045.09 367.021 1045.16 367.191 1045.16 367.391C1045.16 367.586 1045.09 367.752 1044.95 367.889C1044.81 368.025 1044.64 368.094 1044.44 368.094C1044.25 368.094 1044.09 368.025 1043.95 367.889C1043.8 367.752 1043.73 367.586 1043.73 367.391C1043.73 367.191 1043.8 367.021 1043.94 366.881C1044.08 366.74 1044.24 366.67 1044.44 366.67ZM1044.54 362.504C1044.74 362.504 1044.91 362.574 1045.05 362.715C1045.19 362.855 1045.26 363.025 1045.26 363.225C1045.26 363.42 1045.19 363.588 1045.05 363.729C1044.91 363.865 1044.74 363.934 1044.54 363.934C1044.35 363.934 1044.18 363.865 1044.04 363.729C1043.9 363.588 1043.83 363.42 1043.83 363.225C1043.83 363.025 1043.9 362.855 1044.04 362.715C1044.18 362.574 1044.34 362.504 1044.54 362.504Z" fill="black"/>
<path d="M1052.75 366.74V367.795C1052.22 367.994 1051.69 368.094 1051.18 368.094C1050.34 368.094 1049.66 367.844 1049.16 367.344C1048.66 366.844 1048.41 366.174 1048.41 365.334C1048.41 364.486 1048.65 363.803 1049.14 363.283C1049.63 362.764 1050.27 362.504 1051.07 362.504C1051.35 362.504 1051.6 362.531 1051.81 362.586C1052.04 362.637 1052.31 362.734 1052.63 362.879V364.016C1052.1 363.672 1051.6 363.5 1051.13 363.5C1050.65 363.5 1050.26 363.67 1049.95 364.01C1049.64 364.346 1049.49 364.775 1049.49 365.299C1049.49 365.85 1049.65 366.287 1049.99 366.611C1050.32 366.936 1050.77 367.098 1051.34 367.098C1051.75 367.098 1052.22 366.979 1052.75 366.74Z" fill="black"/>
<path d="M1057.4 368V367.314C1057.18 367.561 1056.92 367.752 1056.62 367.889C1056.34 368.025 1056.05 368.094 1055.76 368.094C1055.42 368.094 1055.1 368.01 1054.81 367.842C1054.53 367.67 1054.31 367.439 1054.16 367.15C1054.02 366.857 1053.95 366.373 1053.95 365.697V362.609H1055.01V365.686C1055.01 366.252 1055.09 366.648 1055.25 366.875C1055.42 367.098 1055.7 367.209 1056.11 367.209C1056.62 367.209 1057.05 366.961 1057.4 366.465V362.609H1058.47V368H1057.4Z" fill="black"/>
<path d="M1059.47 362.609H1064.07L1061.22 367.004H1064.07V368H1059.35L1062.18 363.605H1059.47V362.609Z" fill="black"/>
<path d="M1068.48 362.609H1069.75L1067.45 365.252L1070.22 368H1068.79L1066.09 365.252L1068.48 362.609ZM1064.97 359.814H1066.04V368H1064.97V359.814Z" fill="black"/>
<path d="M1071.79 362.609V363.295C1072.27 362.768 1072.81 362.504 1073.42 362.504C1073.75 362.504 1074.07 362.592 1074.36 362.768C1074.64 362.939 1074.86 363.178 1075.01 363.482C1075.16 363.783 1075.24 364.262 1075.24 364.918V368H1074.17V364.93C1074.17 364.379 1074.09 363.986 1073.92 363.752C1073.75 363.514 1073.47 363.395 1073.08 363.395C1072.57 363.395 1072.15 363.646 1071.79 364.15V368H1070.71V362.609H1071.79Z" fill="black"/>
<path d="M1079.31 362.598C1080.13 362.598 1080.81 362.863 1081.35 363.395C1081.89 363.922 1082.17 364.586 1082.17 365.387C1082.17 366.164 1081.89 366.811 1081.34 367.326C1080.79 367.838 1080.1 368.094 1079.26 368.094C1078.45 368.094 1077.78 367.834 1077.23 367.314C1076.69 366.791 1076.42 366.139 1076.42 365.357C1076.42 364.568 1076.69 363.912 1077.24 363.389C1077.79 362.861 1078.48 362.598 1079.31 362.598ZM1079.25 363.559C1078.74 363.559 1078.32 363.727 1077.99 364.062C1077.66 364.398 1077.5 364.826 1077.5 365.346C1077.5 365.861 1077.66 366.283 1078 366.611C1078.34 366.936 1078.77 367.098 1079.29 367.098C1079.82 367.098 1080.25 366.934 1080.58 366.605C1080.91 366.273 1081.08 365.85 1081.08 365.334C1081.08 364.822 1080.91 364.398 1080.56 364.062C1080.21 363.727 1079.78 363.559 1079.25 363.559Z" fill="black"/>
<path d="M1082.59 363.465L1084.6 361.496V362.609H1086.3V363.57H1084.6V366.213C1084.6 366.83 1084.85 367.139 1085.37 367.139C1085.75 367.139 1086.15 367.01 1086.58 366.752V367.748C1086.17 367.979 1085.72 368.094 1085.24 368.094C1084.75 368.094 1084.34 367.951 1084.02 367.666C1083.92 367.58 1083.83 367.484 1083.77 367.379C1083.7 367.27 1083.64 367.129 1083.6 366.957C1083.55 366.781 1083.53 366.449 1083.53 365.961V363.57H1082.59V363.465Z" fill="black"/>
<path d="M1087.32 359.814H1088.39V363.318C1088.83 362.775 1089.39 362.504 1090.05 362.504C1090.41 362.504 1090.73 362.594 1091.01 362.773C1091.3 362.953 1091.51 363.201 1091.65 363.518C1091.79 363.834 1091.86 364.305 1091.86 364.93V368H1090.79V364.666C1090.79 364.271 1090.69 363.955 1090.5 363.717C1090.31 363.475 1090.05 363.354 1089.74 363.354C1089.5 363.354 1089.28 363.414 1089.07 363.535C1088.87 363.656 1088.64 363.857 1088.39 364.139V368H1087.32V359.814Z" fill="black"/>
<path d="M1092.84 362.609H1097.45L1094.59 367.004H1097.45V368H1092.72L1095.55 363.605H1092.84V362.609Z" fill="black"/>
<path d="M1098.9 366.693C1099.1 366.693 1099.27 366.762 1099.41 366.898C1099.55 367.035 1099.62 367.203 1099.62 367.402C1099.62 367.598 1099.55 367.762 1099.41 367.895C1099.27 368.027 1099.1 368.094 1098.9 368.094C1098.7 368.094 1098.53 368.027 1098.4 367.895C1098.26 367.762 1098.19 367.598 1098.19 367.402C1098.19 367.203 1098.26 367.035 1098.4 366.898C1098.53 366.762 1098.7 366.693 1098.9 366.693Z" fill="black"/>
<path d="M1105.03 366.74V367.795C1104.49 367.994 1103.97 368.094 1103.46 368.094C1102.62 368.094 1101.94 367.844 1101.44 367.344C1100.94 366.844 1100.69 366.174 1100.69 365.334C1100.69 364.486 1100.93 363.803 1101.42 363.283C1101.91 362.764 1102.55 362.504 1103.35 362.504C1103.62 362.504 1103.87 362.531 1104.09 362.586C1104.31 362.637 1104.59 362.734 1104.91 362.879V364.016C1104.37 363.672 1103.87 363.5 1103.41 363.5C1102.93 363.5 1102.54 363.67 1102.23 364.01C1101.92 364.346 1101.77 364.775 1101.77 365.299C1101.77 365.85 1101.93 366.287 1102.26 366.611C1102.6 366.936 1103.05 367.098 1103.62 367.098C1104.03 367.098 1104.5 366.979 1105.03 366.74Z" fill="black"/>
<path d="M1108.83 362.598C1109.65 362.598 1110.33 362.863 1110.87 363.395C1111.41 363.922 1111.69 364.586 1111.69 365.387C1111.69 366.164 1111.41 366.811 1110.86 367.326C1110.31 367.838 1109.62 368.094 1108.78 368.094C1107.97 368.094 1107.29 367.834 1106.75 367.314C1106.21 366.791 1105.94 366.139 1105.94 365.357C1105.94 364.568 1106.21 363.912 1106.76 363.389C1107.31 362.861 1108 362.598 1108.83 362.598ZM1108.77 363.559C1108.26 363.559 1107.84 363.727 1107.51 364.062C1107.18 364.398 1107.02 364.826 1107.02 365.346C1107.02 365.861 1107.18 366.283 1107.52 366.611C1107.86 366.936 1108.29 367.098 1108.81 367.098C1109.34 367.098 1109.77 366.934 1110.1 366.605C1110.43 366.273 1110.6 365.85 1110.6 365.334C1110.6 364.822 1110.43 364.398 1110.08 364.062C1109.73 363.727 1109.29 363.559 1108.77 363.559Z" fill="black"/>
<path d="M1117.29 364.086V368H1116.21V365C1116.21 364.402 1116.13 363.986 1115.97 363.752C1115.81 363.514 1115.54 363.395 1115.14 363.395C1114.91 363.395 1114.71 363.445 1114.52 363.547C1114.34 363.648 1114.13 363.828 1113.89 364.086V368H1112.82V362.609H1113.89V363.318C1114.43 362.775 1114.96 362.504 1115.48 362.504C1116.17 362.504 1116.7 362.828 1117.07 363.477C1117.64 362.82 1118.24 362.492 1118.86 362.492C1119.38 362.492 1119.81 362.684 1120.15 363.066C1120.49 363.449 1120.66 364.033 1120.66 364.818V368H1119.59V364.807C1119.59 364.357 1119.5 364.014 1119.31 363.775C1119.13 363.537 1118.87 363.418 1118.52 363.418C1118.08 363.418 1117.67 363.641 1117.29 364.086Z" fill="black"/>
<path d="M877.516 359.768H878.342L882.004 368H880.803L879.713 365.574H876.232L875.201 368H874L877.516 359.768ZM879.232 364.531L877.914 361.566L876.689 364.531H879.232Z" fill="black"/>
<path d="M885.754 362.609H886.908L884.529 368.094H884.172L881.734 362.609H882.9L884.354 365.926L885.754 362.609Z" fill="black"/>
<path d="M891.104 364.76V367.051C891.104 367.234 891.166 367.326 891.291 367.326C891.42 367.326 891.621 367.23 891.895 367.039V367.689C891.652 367.846 891.457 367.951 891.309 368.006C891.164 368.064 891.012 368.094 890.852 368.094C890.395 368.094 890.125 367.914 890.043 367.555C889.59 367.906 889.107 368.082 888.596 368.082C888.221 368.082 887.908 367.959 887.658 367.713C887.408 367.463 887.283 367.15 887.283 366.775C887.283 366.436 887.404 366.133 887.646 365.867C887.893 365.598 888.24 365.385 888.689 365.229L890.055 364.76V364.473C890.055 363.824 889.73 363.5 889.082 363.5C888.5 363.5 887.934 363.801 887.383 364.402V363.236C887.797 362.748 888.393 362.504 889.17 362.504C889.752 362.504 890.219 362.656 890.57 362.961C890.688 363.059 890.793 363.189 890.887 363.354C890.98 363.514 891.039 363.676 891.062 363.84C891.09 364 891.104 364.307 891.104 364.76ZM890.055 366.934V365.334L889.34 365.609C888.977 365.754 888.719 365.9 888.566 366.049C888.418 366.193 888.344 366.375 888.344 366.594C888.344 366.816 888.414 366.998 888.555 367.139C888.699 367.279 888.885 367.35 889.111 367.35C889.451 367.35 889.766 367.211 890.055 366.934Z" fill="black"/>
<path d="M893.389 360.342C893.564 360.342 893.715 360.402 893.84 360.523C893.965 360.645 894.027 360.793 894.027 360.969C894.027 361.141 893.965 361.289 893.84 361.414C893.715 361.539 893.564 361.602 893.389 361.602C893.225 361.602 893.08 361.539 892.955 361.414C892.83 361.285 892.768 361.137 892.768 360.969C892.768 360.805 892.83 360.66 892.955 360.535C893.08 360.406 893.225 360.342 893.389 360.342ZM892.861 362.609H893.928V368H892.861V362.609Z" fill="black"/>
<path d="M895.498 359.814H896.564V368H895.498V359.814Z" fill="black"/>
<path d="M901.498 364.76V367.051C901.498 367.234 901.561 367.326 901.686 367.326C901.814 367.326 902.016 367.23 902.289 367.039V367.689C902.047 367.846 901.852 367.951 901.703 368.006C901.559 368.064 901.406 368.094 901.246 368.094C900.789 368.094 900.52 367.914 900.438 367.555C899.984 367.906 899.502 368.082 898.99 368.082C898.615 368.082 898.303 367.959 898.053 367.713C897.803 367.463 897.678 367.15 897.678 366.775C897.678 366.436 897.799 366.133 898.041 365.867C898.287 365.598 898.635 365.385 899.084 365.229L900.449 364.76V364.473C900.449 363.824 900.125 363.5 899.477 363.5C898.895 363.5 898.328 363.801 897.777 364.402V363.236C898.191 362.748 898.787 362.504 899.564 362.504C900.146 362.504 900.613 362.656 900.965 362.961C901.082 363.059 901.188 363.189 901.281 363.354C901.375 363.514 901.434 363.676 901.457 363.84C901.484 364 901.498 364.307 901.498 364.76ZM900.449 366.934V365.334L899.734 365.609C899.371 365.754 899.113 365.9 898.961 366.049C898.812 366.193 898.738 366.375 898.738 366.594C898.738 366.816 898.809 366.998 898.949 367.139C899.094 367.279 899.279 367.35 899.506 367.35C899.846 367.35 900.16 367.211 900.449 366.934Z" fill="black"/>
<path d="M903.186 359.814H904.252V362.996C904.713 362.66 905.205 362.492 905.729 362.492C906.412 362.492 906.971 362.75 907.404 363.266C907.838 363.781 908.055 364.443 908.055 365.252C908.055 366.119 907.795 366.811 907.275 367.326C906.76 367.838 906.068 368.094 905.201 368.094C904.854 368.094 904.486 368.057 904.1 367.982C903.717 367.908 903.412 367.814 903.186 367.701V359.814ZM904.252 364.016V366.934C904.615 367.043 904.988 367.098 905.371 367.098C905.844 367.098 906.229 366.93 906.525 366.594C906.826 366.258 906.977 365.826 906.977 365.299C906.977 364.764 906.836 364.328 906.555 363.992C906.277 363.656 905.914 363.488 905.465 363.488C905.066 363.488 904.662 363.664 904.252 364.016Z" fill="black"/>
<path d="M909.256 359.814H910.322V368H909.256V359.814Z" fill="black"/>
<path d="M916.463 365.398H912.672C912.699 365.914 912.871 366.324 913.188 366.629C913.508 366.934 913.92 367.086 914.424 367.086C915.127 367.086 915.775 366.867 916.369 366.43V367.473C916.041 367.691 915.715 367.848 915.391 367.941C915.07 368.035 914.693 368.082 914.26 368.082C913.666 368.082 913.186 367.959 912.818 367.713C912.451 367.467 912.156 367.137 911.934 366.723C911.715 366.305 911.605 365.822 911.605 365.275C911.605 364.455 911.838 363.789 912.303 363.277C912.768 362.762 913.371 362.504 914.113 362.504C914.828 362.504 915.398 362.754 915.824 363.254C916.25 363.754 916.463 364.424 916.463 365.264V365.398ZM912.695 364.76H915.408C915.381 364.334 915.254 364.006 915.027 363.775C914.801 363.545 914.496 363.43 914.113 363.43C913.73 363.43 913.416 363.545 913.17 363.775C912.928 364.006 912.77 364.334 912.695 364.76Z" fill="black"/>
<path d="M921.086 362.609V362.287C921.086 361.42 921.27 360.773 921.637 360.348C922.008 359.922 922.451 359.709 922.967 359.709C923.189 359.709 923.453 359.744 923.758 359.814V360.857C923.586 360.795 923.422 360.764 923.266 360.764C922.848 360.764 922.557 360.875 922.393 361.098C922.232 361.32 922.152 361.717 922.152 362.287V362.609H923.113V363.57H922.152V368H921.086V363.57H920.312V362.609H921.086Z" fill="black"/>
<path d="M926.424 362.598C927.244 362.598 927.926 362.863 928.469 363.395C929.012 363.922 929.283 364.586 929.283 365.387C929.283 366.164 929.008 366.811 928.457 367.326C927.906 367.838 927.213 368.094 926.377 368.094C925.568 368.094 924.893 367.834 924.35 367.314C923.807 366.791 923.535 366.139 923.535 365.357C923.535 364.568 923.809 363.912 924.355 363.389C924.906 362.861 925.596 362.598 926.424 362.598ZM926.365 363.559C925.854 363.559 925.434 363.727 925.105 364.062C924.777 364.398 924.613 364.826 924.613 365.346C924.613 365.861 924.781 366.283 925.117 366.611C925.453 366.936 925.885 367.098 926.412 367.098C926.936 367.098 927.363 366.934 927.695 366.605C928.031 366.273 928.199 365.85 928.199 365.334C928.199 364.822 928.025 364.398 927.678 364.062C927.33 363.727 926.893 363.559 926.365 363.559Z" fill="black"/>
<path d="M931.609 362.609V363.846L931.668 363.752C932.184 362.92 932.699 362.504 933.215 362.504C933.617 362.504 934.037 362.707 934.475 363.113L933.912 364.051C933.541 363.699 933.197 363.523 932.881 363.523C932.537 363.523 932.238 363.688 931.984 364.016C931.734 364.344 931.609 364.732 931.609 365.182V368H930.537V362.609H931.609Z" fill="black"/>
<path d="M938.541 359.814H939.607V363.318C940.053 362.775 940.605 362.504 941.266 362.504C941.625 362.504 941.947 362.594 942.232 362.773C942.518 362.953 942.729 363.201 942.865 363.518C943.006 363.834 943.076 364.305 943.076 364.93V368H942.01V364.666C942.01 364.271 941.912 363.955 941.717 363.717C941.525 363.475 941.271 363.354 940.955 363.354C940.721 363.354 940.5 363.414 940.293 363.535C940.086 363.656 939.857 363.857 939.607 364.139V368H938.541V359.814Z" fill="black"/>
<path d="M945.115 360.342C945.291 360.342 945.441 360.402 945.566 360.523C945.691 360.645 945.754 360.793 945.754 360.969C945.754 361.141 945.691 361.289 945.566 361.414C945.441 361.539 945.291 361.602 945.115 361.602C944.951 361.602 944.807 361.539 944.682 361.414C944.557 361.285 944.494 361.137 944.494 360.969C944.494 360.805 944.557 360.66 944.682 360.535C944.807 360.406 944.951 360.342 945.115 360.342ZM944.588 362.609H945.654V368H944.588V362.609Z" fill="black"/>
<path d="M948.344 362.609V363.846L948.402 363.752C948.918 362.92 949.434 362.504 949.949 362.504C950.352 362.504 950.771 362.707 951.209 363.113L950.646 364.051C950.275 363.699 949.932 363.523 949.615 363.523C949.271 363.523 948.973 363.688 948.719 364.016C948.469 364.344 948.344 364.732 948.344 365.182V368H947.271V362.609H948.344Z" fill="black"/>
<path d="M956.307 365.398H952.516C952.543 365.914 952.715 366.324 953.031 366.629C953.352 366.934 953.764 367.086 954.268 367.086C954.971 367.086 955.619 366.867 956.213 366.43V367.473C955.885 367.691 955.559 367.848 955.234 367.941C954.914 368.035 954.537 368.082 954.104 368.082C953.51 368.082 953.029 367.959 952.662 367.713C952.295 367.467 952 367.137 951.777 366.723C951.559 366.305 951.449 365.822 951.449 365.275C951.449 364.455 951.682 363.789 952.146 363.277C952.611 362.762 953.215 362.504 953.957 362.504C954.672 362.504 955.242 362.754 955.668 363.254C956.094 363.754 956.307 364.424 956.307 365.264V365.398ZM952.539 364.76H955.252C955.225 364.334 955.098 364.006 954.871 363.775C954.645 363.545 954.34 363.43 953.957 363.43C953.574 363.43 953.26 363.545 953.014 363.775C952.771 364.006 952.613 364.334 952.539 364.76Z" fill="black"/>
<path d="M962.4 367.391C962.4 367.586 962.33 367.752 962.189 367.889C962.053 368.025 961.885 368.094 961.686 368.094C961.475 368.094 961.297 368.027 961.152 367.895C961.012 367.758 960.941 367.59 960.941 367.391C960.941 367.18 961.012 367.004 961.152 366.863C961.293 366.719 961.465 366.646 961.668 366.646C961.879 366.646 962.053 366.719 962.189 366.863C962.33 367.004 962.4 367.18 962.4 367.391ZM961.551 365.445L961.457 365.146C961.375 364.912 961.279 364.379 961.17 363.547C961.064 362.715 961.012 362.008 961.012 361.426C961.012 360.281 961.236 359.709 961.686 359.709C962.123 359.709 962.342 360.266 962.342 361.379C962.342 362.305 962.254 363.252 962.078 364.221L961.92 365.117L961.826 365.457C961.791 365.578 961.738 365.639 961.668 365.639C961.625 365.639 961.586 365.574 961.551 365.445Z" fill="black"/>
</g>
<defs>
<clipPath id="clip0_21_68">
<rect width="1200" height="400" fill="white"/>
</clipPath>
</defs>
</svg>
