<svg width="1200" height="400" viewBox="0 0 1200 400" fill="none" xmlns="http://www.w3.org/2000/svg">
<style xmlns="http://www.w3.org/2000/svg">
		#background {
			visibility: hidden;
			transform: scaleY(0);
			transform-origin: center;
			fill: #fff;
			animation: background 1s cubic-bezier(0.25, 1, 0.5, 1) 0s 1 forwards;
		}

		@keyframes background {
			0% {
				transform: scaleY(0);
			}

			9.99% {
				transform: scaleY(0);
			}

			10% {
				transform: scaleY(1);
			}

			30% {
				transform: scaleY(1);
			}

			30.01% {
				transform: scaleY(0);
			}

			40% {
				transform: scaleY(0);
			}

			100% {
				visibility: visible;
				transform: scaleY(1);
			}
		}

		#cursor {
			opacity: 0;
			animation: cursor 1s linear 0.8s infinite forwards;
		}

		@keyframes cursor {
			0% {
				opacity: 0;
			}

			40% {
				opacity: 0;
			}

			50% {
				opacity: 1;
			}

			99.99% {
				opacity: 1;
			}

			100% {
				opacity: 0;
			}
		}

		#blobs {
			opacity: 0;
			animation: show 1s ease-out 1.3s 1 forwards;
		}

		#blobs &gt; path {
			--scale: 3;
			fill: transparent;
			stroke: #353535;
			stroke-width: 0.3px;
			transform: scale(var(--scale));
			animation: blob-rotate 10s linear 0s infinite forwards;
				
		}

		#blobs &gt; path.speed-2 {
			animation-duration: 15s;
		}

		#blobs &gt; path.speed-3 {
			animation-duration: 20s;
		}

		#blobs &gt; path.speed-4 {
			animation-duration: 25s;
		}

		#blobs &gt; path.speed-5 {
			animation-duration: 30s;
		}

		#blobs &gt; path.rev {
			animation-direction: reverse;
		}

		@keyframes blob-rotate {
			0% {
				transform: scale(var(--scale)) rotate(0deg);
			}

			100% {
				transform: scale(var(--scale)) rotate(360deg);
			}
		}

		@keyframes show {
			0% {
				opacity: 0;
			}

			100% {
				opacity: 1;
			}
		}

		@keyframes blink-out {
			0%,
			19.99%,
			40%,
			59.99%,
			90% {
				opacity: 0;
			}

			20%,
			39.99%  {
				opacity: 0.3;
			}

			60%,
			89.99% {
				opacity: 0.8;
			}

			100% {
				opacity: 0;
			}
		}

		#nameUnderlay {
			opacity: 1;
			animation: blink-out 0.4s linear 1.2s 1 forwards;
		}

		#nameBlobs {
			opacity: 0;
			animation: show 0.1s linear 1.6s 1 forwards;
		}

		#nameBlobs &gt; .blob-1 {
			transform: translate(800px, 300px);
		}

		#nameBlobs &gt; .blob-1 &gt; path {
			--scale: 2;
			fill: #FF0066;
			transform: scale(var(--scale));
			animation: blob-rotate 10s linear 0s infinite forwards;
		}

		#nameBlobs &gt; .blob-2 {
			transform: translate(600px, -100px);
		}

		#nameBlobs &gt; .blob-2 &gt; path {
			--scale: 4;
			fill: #0077ff;
			transform: scale(var(--scale));
			animation: blob-rotate 13s linear 0s infinite forwards;
		}

		#nameBlobs &gt; .blob-3 {
			transform: translate(520px, 560px);
		}

		#nameBlobs &gt; .blob-3 &gt; path {
			--scale: 5;
			fill: #ff8800;
			transform: scale(var(--scale));
			animation: blob-rotate 18s linear 0s infinite backwards;
		}

		#nameBlobs &gt; .blob-4 {
			transform: translate(220px, 160px);
		}

		#nameBlobs &gt; .blob-4 &gt; path {
			--scale: 4;
			fill: #6200ff;
			transform: scale(var(--scale));
			animation: blob-rotate 14s linear 0s infinite;
		}

		.fade-up {
			--amount: 60px;
			opacity: 0;
			transform: translateY(var(--amount));
			animation: fade-up 0.4s cubic-bezier(0.25, 1, 0.5, 1) 0.6s 1 forwards;
		}

		.fade-down {
			--amount: -60px;
			opacity: 0;
			transform: translateY(var(--amount));
			animation: fade-down 0.4s cubic-bezier(0.25, 1, 0.5, 1) 0.6s 1 forwards;
		}

		.fade-right {
			--amount: 60px;
			opacity: 0;
			transform: translateX(var(--amount));
			animation: fade-right 0.4s cubic-bezier(0.25, 1, 0.5, 1) 0.6s 1 forwards;
		}

		.small {
			--amount: 20px;
		}

		.fade-down.small {
			--amount: -20px;
		}

		.fade-scale {
			transform: scaleX(0);
			transform-origin: 54px 0;
			animation: fade-scale 0.4s cubic-bezier(0.25, 1, 0.5, 1) 0.6s 1 forwards;
		}

		.d-05 {
			animation-delay: 0.65s;
		}

		.d-1 {
			animation-delay: 0.7s;
		}

		.d-15 {
			animation-delay: 0.75s;
		}

		.d-2 {
			animation-delay: 0.8s;
		}

		.d-25 {
			animation-delay: 0.85s;
		}

		.d-3 {
			animation-delay: 0.9s;
		}

		.d-35 {
			animation-delay: 0.95s;
		}

		.d-4 {
			animation-delay: 1s;
		}

		.d-45 {
			animation-delay: 1.05s;
		}

		.d-5 {
			animation-delay: 1.1s;
		}

		.d-55 {
			animation-delay: 1.15s;
		}

		.d-6 {
			animation-delay: 1.2s;
		}

		.d-6 {
			animation-delay: 1.25s;
		}

		.d-7 {
			animation-delay: 1.3s;
		}

		@keyframes fade-up {
			0% {
				opacity: 0;
				transform: translateY(var(--amount));
			}

			10% {
				transform: translateY(var(--amount));
			}

			30% {
				opacity: 1;
			}

			100% {
				opacity: 1;
				transform: translateY(0);
			}
		}

		@keyframes fade-down {
			0% {
				opacity: 0;
				transform: translateY(var(--amount));
			}

			10% {
				transform: translateY(var(--amount));
			}

			30% {
				opacity: 1;
			}

			100% {
				opacity: 1;
				transform: translateY(0);
			}
		}

		@keyframes fade-right {
			0% {
				opacity: 0;
				transform: translateX(var(--amount));
			}

			10% {
				transform: translateX(var(--amount));
			}

			30% {
				opacity: 1;
			}

			100% {
				opacity: 1;
				transform: translateX(0);
			}
		}

		@keyframes fade-scale {
			0% {
				transform: scaleX(0);
			}

			100% {
				transform: scaleX(1);
			}
		}
	</style>
    <g clip-path="url(#clip0_21_68)">
        <rect width="1200" height="400" fill="white" />
        <path
            d="M475.859 206.391H483.828V228.938C483.828 236.312 480.25 240 473.094 240H471.641C464.484 240 460.891 236.312 460.859 228.938V160.125C460.859 152.75 464.453 149.078 471.641 149.109H473.094C480.25 149.109 483.828 152.781 483.828 160.125V182.672H475.859V161.203C475.859 158.453 474.672 157.078 472.297 157.078C469.984 157.078 468.828 158.453 468.828 161.203V227.906C468.828 230.656 469.984 232.031 472.297 232.031C474.672 232.031 475.859 230.656 475.859 227.906V206.391Z"
            fill="black" />
        <path
            d="M509.827 150.328H517.796V228.938C517.796 236.312 514.217 240 507.061 240H505.608C498.452 240 494.858 236.312 494.827 228.938V150.328H502.796V227.906C502.796 230.656 503.952 232.031 506.264 232.031C508.639 232.031 509.827 230.656 509.827 227.906V150.328Z"
            fill="black" />
        <path
            d="M543.794 150.328V158.297L536.669 232.031H543.794V240H528.794V232.031L535.826 158.297H528.794V150.328H543.794Z"
            fill="black" />
        <path
            d="M571.528 194.484C574.028 198.078 575.684 201.125 576.496 203.625C577.34 206.125 577.762 209.484 577.762 213.703V240H569.887L569.793 212.531C569.793 210.219 569.559 208.281 569.09 206.719C568.653 205.156 567.793 203.422 566.512 201.516C565.043 203.766 564.043 205.719 563.512 207.375C563.012 209.031 562.762 211.172 562.762 213.797V240H554.793V150.328H562.762V192.844C567.449 187.656 569.793 182.188 569.793 176.438L569.887 150.328H577.762V175.312C577.762 179.531 577.34 182.891 576.496 185.391C575.684 187.859 574.028 190.891 571.528 194.484Z"
            fill="black" />
        <path
            d="M603.948 150.328H611.729V240H603.948L596.354 190.734V240H588.761V150.328H596.354L603.948 198.797V150.328Z"
            fill="black" />
        <path
            d="M634.962 149.109C642.119 149.109 645.697 152.781 645.697 160.125V228.938C645.697 236.312 642.119 240 634.962 240H636.556H633.509C626.353 240 622.759 236.312 622.728 228.938V160.125C622.728 152.75 626.322 149.078 633.509 149.109H634.962ZM637.728 227.906V161.203C637.728 158.453 636.541 157.078 634.166 157.078C631.853 157.078 630.697 158.453 630.697 161.203V227.906C630.697 230.656 631.853 232.031 634.166 232.031C636.541 232.031 637.728 230.656 637.728 227.906Z"
            fill="black" />
        <path d="M677.696 150.328V158.297H670.196V240H662.227V158.297H654.727V150.328H677.696Z"
            fill="black" />
        <path
            d="M696.101 150.328V192.844C696.163 192.781 696.491 192.375 697.085 191.625C699.648 188.094 701.304 185.375 702.054 183.469C702.835 181.531 703.226 179.031 703.226 175.969V150.328H711.194V240H703.226V196.781C703.163 196.906 703.054 197.094 702.898 197.344C702.741 197.562 702.601 197.734 702.476 197.859C699.913 201.391 698.226 204.094 697.413 205.969C696.601 207.844 696.194 210.266 696.194 213.234L696.101 240H688.226V150.328H696.101Z"
            fill="black" />
        <path
            d="M737.287 150.328V158.297L730.162 232.031H737.287V240H722.287V232.031L729.318 158.297H722.287V150.328H737.287Z"
            fill="black" />
        <mask id="mask0_21_68" style="mask-type:luminance" maskUnits="userSpaceOnUse" x="0" y="0"
            width="1200" height="400">
            <path d="M1200 0H0V400H1200V0Z" fill="black" />
            <path
                d="M475.859 206.391H483.828V228.938C483.828 236.312 480.25 240 473.094 240H471.641C464.484 240 460.891 236.312 460.859 228.938V160.125C460.859 152.75 464.453 149.078 471.641 149.109H473.094C480.25 149.109 483.828 152.781 483.828 160.125V182.672H475.859V161.203C475.859 158.453 474.672 157.078 472.297 157.078C469.984 157.078 468.828 158.453 468.828 161.203V227.906C468.828 230.656 469.984 232.031 472.297 232.031C474.672 232.031 475.859 230.656 475.859 227.906V206.391Z"
                fill="white" />
            <path
                d="M509.827 150.328H517.796V228.938C517.796 236.312 514.217 240 507.061 240H505.608C498.452 240 494.858 236.312 494.827 228.938V150.328H502.796V227.906C502.796 230.656 503.952 232.031 506.264 232.031C508.639 232.031 509.827 230.656 509.827 227.906V150.328Z"
                fill="white" />
            <path
                d="M543.794 150.328V158.297L536.669 232.031H543.794V240H528.794V232.031L535.826 158.297H528.794V150.328H543.794Z"
                fill="white" />
            <path
                d="M571.528 194.484C574.028 198.078 575.684 201.125 576.496 203.625C577.34 206.125 577.762 209.484 577.762 213.703V240H569.887L569.793 212.531C569.793 210.219 569.559 208.281 569.09 206.719C568.653 205.156 567.793 203.422 566.512 201.516C565.043 203.766 564.043 205.719 563.512 207.375C563.012 209.031 562.762 211.172 562.762 213.797V240H554.793V150.328H562.762V192.844C567.449 187.656 569.793 182.188 569.793 176.438L569.887 150.328H577.762V175.312C577.762 179.531 577.34 182.891 576.496 185.391C575.684 187.859 574.028 190.891 571.528 194.484Z"
                fill="white" />
            <path
                d="M603.948 150.328H611.729V240H603.948L596.354 190.734V240H588.761V150.328H596.354L603.948 198.797V150.328Z"
                fill="white" />
            <path
                d="M634.962 149.109C642.119 149.109 645.697 152.781 645.697 160.125V228.938C645.697 236.312 642.119 240 634.962 240H636.556H633.509C626.353 240 622.759 236.312 622.728 228.938V160.125C622.728 152.75 626.322 149.078 633.509 149.109H634.962ZM637.728 227.906V161.203C637.728 158.453 636.541 157.078 634.166 157.078C631.853 157.078 630.697 158.453 630.697 161.203V227.906C630.697 230.656 631.853 232.031 634.166 232.031C636.541 232.031 637.728 230.656 637.728 227.906Z"
                fill="white" />
            <path d="M677.696 150.328V158.297H670.196V240H662.227V158.297H654.727V150.328H677.696Z"
                fill="white" />
            <path
                d="M696.101 150.328V192.844C696.163 192.781 696.491 192.375 697.085 191.625C699.648 188.094 701.304 185.375 702.054 183.469C702.835 181.531 703.226 179.031 703.226 175.969V150.328H711.194V240H703.226V196.781C703.163 196.906 703.054 197.094 702.898 197.344C702.741 197.562 702.601 197.734 702.476 197.859C699.913 201.391 698.226 204.094 697.413 205.969C696.601 207.844 696.194 210.266 696.194 213.234L696.101 240H688.226V150.328H696.101Z"
                fill="white" />
            <path
                d="M737.287 150.328V158.297L730.162 232.031H737.287V240H722.287V232.031L729.318 158.297H722.287V150.328H737.287Z"
                fill="white" />
        </mask>
        <g mask="url(#mask0_21_68)">
            <path d="M1200 0H0V400H1200V0Z" fill="#31343A" />
            <path
                d="M53.2 -73.5C68 -62.5 78.4 -45.7 83.7 -27.6C89 -9.6 89.1 9.7 83.3 26.9C77.5 44.1 65.8 59.3 50.9 68.6C36.1 77.9 18 81.4 1.10003 79.8C-15.8 78.3 -31.6 71.7 -46 62.3C-60.4 52.8 -73.5 40.5 -79.6 25C-85.8 9.6 -85.1 -8.89999 -77.8 -23.4C-70.5 -38 -56.7 -48.5 -42.7 -59.8C-28.6 -71.1 -14.3 -83.2 2.40002 -86.5C19.2 -89.9 38.4 -84.6 53.2 -73.5Z"
                fill="black" />
            <path
                d="M54.2 -72.6C70 -63.1 82.5 -47 85 -29.8C87.6 -12.7 80.2 5.5 71.1 19.8C61.9 34.2 51 44.6 38.8 52.6C26.7 60.5 13.4 65.9 0.100006 65.7C-13.1 65.5 -26.1 59.7 -38.5 51.9C-50.8 44 -62.4 34 -69.5 20.6C-76.7 7.1 -79.4 -9.8 -75.9 -25.9C-72.4 -42 -62.6 -57.4 -48.9 -67.6C-35.2 -77.8 -17.6 -82.9 0.800011 -84C19.2 -85 38.4 -82.1 54.2 -72.6Z"
                fill="black" />
            <path
                d="M45.5 -64.7C58.1 -53.6 66.6 -39 73.8 -22.6C81 -6.2 86.9 11.9 80.6 24.6C74.3 37.2 55.8 44.3 40.3 48.4C24.9 52.6 12.4 53.8 -2.99995 57.9C-18.5 62 -36.9 69.1 -50.2 64.3C-63.5 59.5 -71.7 42.7 -71.7 27C-71.7 11.3 -63.6 -3.4 -59 -19.7C-54.4 -36 -53.4 -54 -44.1 -66.2C-34.9 -78.4 -17.4 -84.8 -0.499954 -84.2C16.5 -83.5 33 -75.8 45.5 -64.7Z"
                fill="black" />
            <path
                d="M51.2 -66.4C64.9 -60.6 73.5 -43.6 79.3 -25.7C85.2 -7.90001 88.3 10.9 83.9 28.1C79.5 45.3 67.5 60.8 52.2 70.4C37 80.1 18.5 83.8 4.10003 78.2C-10.4 72.6 -20.7 57.7 -31.2 46.5C-41.6 35.3 -52.1 27.8 -60.6 16.2C-69.2 4.6 -75.8 -11.1 -71.7 -23.2C-67.7 -35.4 -53 -44 -39.3 -49.8C-25.5 -55.6 -12.8 -58.4 3.00003 -62.6C18.8 -66.7 37.6 -72.2 51.2 -66.4Z"
                fill="black" />
        </g>
        <path
            d="M60 66V46.12H68.512C69.3464 46.1102 70.1714 46.2972 70.92 46.666C71.6404 47.0257 72.2853 47.5199 72.82 48.122C73.3579 48.7232 73.7846 49.4153 74.08 50.166C74.3745 50.9006 74.5266 51.6845 74.528 52.476C74.5316 53.3686 74.3554 54.2529 74.01 55.076C73.6817 55.8728 73.185 56.5891 72.554 57.176C71.9311 57.7516 71.1752 58.1639 70.354 58.376L75.176 66H72.32L67.784 58.86H62.52V66H60ZM62.52 56.62H68.54C69.1889 56.6334 69.8239 56.4316 70.346 56.046C70.8697 55.6481 71.2828 55.1227 71.546 54.52C71.8369 53.8781 71.985 53.1807 71.98 52.476C71.9884 51.7589 71.8165 51.0513 71.48 50.418C71.1685 49.8194 70.717 49.3048 70.164 48.918C69.6393 48.5499 69.013 48.3542 68.372 48.358H62.52V56.62ZM92.452 63.76V66H78.952V46.12H92.2V48.36H81.476V54.8H90.8V56.9H81.476V63.76H92.452ZM102.504 46.12H104.632L112.752 66H110.064L107.834 60.176H99.283L97.044 66H94.356L102.504 46.12ZM107.084 58.22L103.568 49.036L100.037 58.216L107.084 58.22ZM115.972 66V46.12H122.86C124.728 46.053 126.576 46.5139 128.194 47.45C129.592 48.3032 130.707 49.5499 131.4 51.034C132.123 52.6004 132.487 54.3088 132.464 56.034C132.508 57.8591 132.104 59.6671 131.288 61.3C130.539 62.757 129.381 63.9636 127.956 64.772C126.395 65.6227 124.637 66.0463 122.86 66H115.972ZM129.92 56.032C129.946 54.6615 129.664 53.3027 129.094 52.056C128.577 50.9371 127.745 49.9932 126.7 49.34C125.54 48.6562 124.21 48.3163 122.864 48.36H118.492V63.76H122.86C124.219 63.8054 125.561 63.45 126.72 62.738C127.762 62.0605 128.588 61.0985 129.1 59.966C129.659 58.7307 129.939 57.3876 129.92 56.032ZM153.772 66V50.824L147.22 62.5H145.68L139.1 50.824V66H136.58V46.12H139.24L146.44 59.028L153.66 46.12H156.292V66H153.772ZM175.108 63.76V66H161.608V46.12H174.852V48.36H164.132V54.8H173.456V56.9H164.132V63.76H175.108ZM178.52 66V62.864H180.592V66H178.52ZM206.968 66H204.504V57.9C204.588 56.7323 204.331 55.5654 203.762 54.542C203.52 54.1873 203.19 53.9013 202.804 53.7117C202.419 53.5222 201.991 53.4354 201.562 53.46C200.563 53.4634 199.603 53.845 198.874 54.528C198.054 55.2679 197.462 56.2259 197.166 57.29V66H194.702V57.9C194.789 56.7294 194.536 55.5585 193.974 54.528C193.733 54.1765 193.405 53.8935 193.023 53.7063C192.64 53.5191 192.215 53.4343 191.79 53.46C190.802 53.4667 189.85 53.8361 189.116 54.498C188.282 55.2247 187.682 56.1829 187.394 57.251V66H184.93V51.468H187.17V54.607C187.714 53.5892 188.515 52.7318 189.494 52.12C190.464 51.5316 191.58 51.2284 192.714 51.245C193.775 51.192 194.816 51.5449 195.626 52.232C196.358 52.8963 196.833 53.7962 196.97 54.775C197.538 53.7194 198.355 52.8181 199.35 52.149C200.303 51.5425 201.413 51.2295 202.542 51.249C203.274 51.2245 204 51.3819 204.656 51.707C205.215 52.0032 205.684 52.4447 206.014 52.985C206.369 53.5807 206.615 54.2344 206.742 54.916C206.897 55.7123 206.972 56.5219 206.966 57.333L206.968 66ZM210.42 58.776C210.405 57.471 210.697 56.1808 211.274 55.01C211.807 53.9107 212.615 52.9676 213.62 52.272C214.63 51.5832 215.828 51.2241 217.05 51.244C218.173 51.2285 219.276 51.5504 220.214 52.168C221.103 52.7385 221.85 53.5047 222.398 54.408V45.56H224.862V63.2C224.843 63.434 224.907 63.6672 225.044 63.858C225.123 63.9354 225.217 63.9963 225.32 64.0372C225.423 64.078 225.533 64.098 225.644 64.096V66C225.283 66.0644 224.918 66.1018 224.552 66.112C224.078 66.1175 223.621 65.9382 223.278 65.612C223.112 65.4753 222.977 65.3046 222.883 65.1114C222.789 64.9181 222.737 64.7069 222.732 64.492V63.256C222.161 64.1815 221.361 64.9436 220.408 65.468C219.487 65.996 218.445 66.2758 217.384 66.28C216.422 66.2893 215.471 66.0844 214.598 65.68C213.755 65.2863 213.002 64.7232 212.386 64.026C211.76 63.3206 211.266 62.5075 210.93 61.626C210.585 60.7157 210.412 59.7494 210.42 58.776ZM222.4 60.91V56.753C222.166 56.1124 221.793 55.5317 221.308 55.053C220.816 54.5539 220.243 54.1417 219.614 53.834C219.037 53.5409 218.399 53.3845 217.752 53.377C217.067 53.367 216.389 53.5238 215.778 53.834C215.196 54.1335 214.682 54.5482 214.266 55.053C213.842 55.5675 213.515 56.1542 213.3 56.785C213.075 57.4357 212.962 58.1196 212.964 58.808C212.96 59.5093 213.089 60.205 213.342 60.859C213.586 61.4931 213.947 62.0758 214.406 62.577C214.855 63.0694 215.399 63.4654 216.006 63.741C216.626 64.0209 217.3 64.1628 217.98 64.157C218.453 64.1527 218.921 64.0686 219.366 63.908C219.847 63.737 220.302 63.5022 220.72 63.21C221.138 62.9253 221.507 62.5743 221.812 62.171C222.099 61.7993 222.3 61.3686 222.4 60.91Z"
            fill="black" />
        <path
            d="M236.48 62.4727C236.48 61.8984 236.689 61.4453 237.107 61.1133C237.529 60.7773 238.104 60.6094 238.83 60.6094H241.051V61.4414H239.961C240.172 61.6562 240.318 61.8516 240.4 62.0273C240.482 62.2031 240.523 62.4043 240.523 62.6309C240.523 62.9121 240.443 63.1895 240.283 63.4629C240.123 63.7324 239.916 63.9395 239.662 64.084C239.412 64.2285 239 64.3438 238.426 64.4297C238.023 64.4883 237.822 64.627 237.822 64.8457C237.822 64.9707 237.896 65.0742 238.045 65.1562C238.197 65.2344 238.471 65.3164 238.865 65.4023C239.525 65.5469 239.949 65.6602 240.137 65.7422C240.328 65.8242 240.5 65.9414 240.652 66.0938C240.91 66.3516 241.039 66.6758 241.039 67.0664C241.039 67.5781 240.811 67.9863 240.354 68.291C239.9 68.5957 239.293 68.748 238.531 68.748C237.762 68.748 237.146 68.5938 236.686 68.2852C236.229 67.9805 236 67.5703 236 67.0547C236 66.3242 236.451 65.8535 237.354 65.6426C236.994 65.4121 236.814 65.1836 236.814 64.957C236.814 64.7852 236.891 64.6289 237.043 64.4883C237.199 64.3477 237.408 64.2441 237.67 64.1777C236.877 63.8262 236.48 63.2578 236.48 62.4727ZM238.484 61.5352C238.195 61.5352 237.949 61.6328 237.746 61.8281C237.543 62.0234 237.441 62.2578 237.441 62.5312C237.441 62.8086 237.541 63.0391 237.74 63.2227C237.939 63.4023 238.191 63.4922 238.496 63.4922C238.797 63.4922 239.047 63.4004 239.246 63.2168C239.449 63.0293 239.551 62.7969 239.551 62.5195C239.551 62.2383 239.449 62.0039 239.246 61.8164C239.043 61.6289 238.789 61.5352 238.484 61.5352ZM238.232 66.252C237.873 66.252 237.578 66.3281 237.348 66.4805C237.121 66.6328 237.008 66.8281 237.008 67.0664C237.008 67.6211 237.508 67.8984 238.508 67.8984C238.98 67.8984 239.346 67.8281 239.604 67.6875C239.865 67.5508 239.996 67.3555 239.996 67.1016C239.996 66.8516 239.832 66.6465 239.504 66.4863C239.176 66.3301 238.752 66.252 238.232 66.252Z"
            fill="black" fill-opacity="0.5" />
        <path
            d="M242.428 58.3418C242.604 58.3418 242.754 58.4023 242.879 58.5234C243.004 58.6445 243.066 58.793 243.066 58.9688C243.066 59.1406 243.004 59.2891 242.879 59.4141C242.754 59.5391 242.604 59.6016 242.428 59.6016C242.264 59.6016 242.119 59.5391 241.994 59.4141C241.869 59.2852 241.807 59.1367 241.807 58.9688C241.807 58.8047 241.869 58.6602 241.994 58.5352C242.119 58.4062 242.264 58.3418 242.428 58.3418ZM241.9 60.6094H242.967V66H241.9V60.6094Z"
            fill="black" fill-opacity="0.5" />
        <path
            d="M243.758 61.4648L245.762 59.4961V60.6094H247.467V61.5703H245.762V64.2129C245.762 64.8301 246.018 65.1387 246.529 65.1387C246.912 65.1387 247.316 65.0098 247.742 64.752V65.748C247.332 65.9785 246.885 66.0938 246.4 66.0938C245.912 66.0938 245.506 65.9512 245.182 65.666C245.08 65.5801 244.996 65.4844 244.93 65.3789C244.863 65.2695 244.807 65.1289 244.76 64.957C244.717 64.7812 244.695 64.4492 244.695 63.9609V61.5703H243.758V61.4648Z"
            fill="black" fill-opacity="0.5" />
        <path
            d="M248.486 57.8145H249.553V61.3184C249.998 60.7754 250.551 60.5039 251.211 60.5039C251.57 60.5039 251.893 60.5938 252.178 60.7734C252.463 60.9531 252.674 61.2012 252.811 61.5176C252.951 61.834 253.021 62.3047 253.021 62.9297V66H251.955V62.666C251.955 62.2715 251.857 61.9551 251.662 61.7168C251.471 61.4746 251.217 61.3535 250.9 61.3535C250.666 61.3535 250.445 61.4141 250.238 61.5352C250.031 61.6562 249.803 61.8574 249.553 62.1387V66H248.486V57.8145Z"
            fill="black" fill-opacity="0.5" />
        <path
            d="M257.943 66V65.3145C257.717 65.5605 257.457 65.752 257.164 65.8887C256.875 66.0254 256.586 66.0938 256.297 66.0938C255.957 66.0938 255.643 66.0098 255.354 65.8418C255.068 65.6699 254.852 65.4395 254.703 65.1504C254.559 64.8574 254.486 64.373 254.486 63.6973V60.6094H255.553V63.6855C255.553 64.252 255.633 64.6484 255.793 64.875C255.957 65.0977 256.242 65.209 256.648 65.209C257.156 65.209 257.588 64.9609 257.943 64.4648V60.6094H259.01V66H257.943Z"
            fill="black" fill-opacity="0.5" />
        <path
            d="M260.463 57.8145H261.529V60.9961C261.99 60.6602 262.482 60.4922 263.006 60.4922C263.689 60.4922 264.248 60.75 264.682 61.2656C265.115 61.7812 265.332 62.4434 265.332 63.252C265.332 64.1191 265.072 64.8105 264.553 65.3262C264.037 65.8379 263.346 66.0938 262.479 66.0938C262.131 66.0938 261.764 66.0566 261.377 65.9824C260.994 65.9082 260.689 65.8145 260.463 65.7012V57.8145ZM261.529 62.0156V64.9336C261.893 65.043 262.266 65.0977 262.648 65.0977C263.121 65.0977 263.506 64.9297 263.803 64.5938C264.104 64.2578 264.254 63.8262 264.254 63.2988C264.254 62.7637 264.113 62.3281 263.832 61.9922C263.555 61.6562 263.191 61.4883 262.742 61.4883C262.344 61.4883 261.939 61.6641 261.529 62.0156Z"
            fill="black" fill-opacity="0.5" />
        <path
            d="M266.943 64.6934C267.143 64.6934 267.312 64.7617 267.453 64.8984C267.594 65.0352 267.664 65.2031 267.664 65.4023C267.664 65.5977 267.594 65.7617 267.453 65.8945C267.316 66.0273 267.146 66.0938 266.943 66.0938C266.744 66.0938 266.576 66.0273 266.439 65.8945C266.303 65.7617 266.234 65.5977 266.234 65.4023C266.234 65.2031 266.303 65.0352 266.439 64.8984C266.576 64.7617 266.744 64.6934 266.943 64.6934Z"
            fill="black" fill-opacity="0.5" />
        <path
            d="M273.072 64.7402V65.7949C272.537 65.9941 272.014 66.0938 271.502 66.0938C270.658 66.0938 269.984 65.8438 269.48 65.3438C268.98 64.8438 268.73 64.1738 268.73 63.334C268.73 62.4863 268.975 61.8027 269.463 61.2832C269.951 60.7637 270.594 60.5039 271.391 60.5039C271.668 60.5039 271.916 60.5312 272.135 60.5859C272.357 60.6367 272.631 60.7344 272.955 60.8789V62.0156C272.416 61.6719 271.916 61.5 271.455 61.5C270.975 61.5 270.58 61.6699 270.271 62.0098C269.963 62.3457 269.809 62.7754 269.809 63.2988C269.809 63.8496 269.975 64.2871 270.307 64.6113C270.643 64.9355 271.094 65.0977 271.66 65.0977C272.07 65.0977 272.541 64.9785 273.072 64.7402Z"
            fill="black" fill-opacity="0.5" />
        <path
            d="M276.869 60.5977C277.689 60.5977 278.371 60.8633 278.914 61.3945C279.457 61.9219 279.729 62.5859 279.729 63.3867C279.729 64.1641 279.453 64.8105 278.902 65.3262C278.352 65.8379 277.658 66.0938 276.822 66.0938C276.014 66.0938 275.338 65.834 274.795 65.3145C274.252 64.791 273.98 64.1387 273.98 63.3574C273.98 62.5684 274.254 61.9121 274.801 61.3887C275.352 60.8613 276.041 60.5977 276.869 60.5977ZM276.811 61.5586C276.299 61.5586 275.879 61.7266 275.551 62.0625C275.223 62.3984 275.059 62.8262 275.059 63.3457C275.059 63.8613 275.227 64.2832 275.562 64.6113C275.898 64.9355 276.33 65.0977 276.857 65.0977C277.381 65.0977 277.809 64.9336 278.141 64.6055C278.477 64.2734 278.645 63.8496 278.645 63.334C278.645 62.8223 278.471 62.3984 278.123 62.0625C277.775 61.7266 277.338 61.5586 276.811 61.5586Z"
            fill="black" fill-opacity="0.5" />
        <path
            d="M285.33 62.0859V66H284.258V63C284.258 62.4023 284.178 61.9863 284.018 61.752C283.857 61.5137 283.578 61.3945 283.18 61.3945C282.957 61.3945 282.752 61.4453 282.564 61.5469C282.381 61.6484 282.17 61.8281 281.932 62.0859V66H280.865V60.6094H281.932V61.3184C282.475 60.7754 283.006 60.5039 283.525 60.5039C284.209 60.5039 284.738 60.8281 285.113 61.4766C285.684 60.8203 286.279 60.4922 286.9 60.4922C287.424 60.4922 287.854 60.6836 288.189 61.0664C288.529 61.4492 288.699 62.0332 288.699 62.8184V66H287.633V62.8066C287.633 62.3574 287.541 62.0137 287.357 61.7754C287.174 61.5371 286.91 61.418 286.566 61.418C286.125 61.418 285.713 61.6406 285.33 62.0859Z"
            fill="black" fill-opacity="0.5" />
        <path d="M289.443 66.1055L291.799 57.7031H292.643L290.293 66.1055H289.443Z" fill="black"
            fill-opacity="0.5" />
        <path
            d="M297.588 64.7402V65.7949C297.053 65.9941 296.529 66.0938 296.018 66.0938C295.174 66.0938 294.5 65.8438 293.996 65.3438C293.496 64.8438 293.246 64.1738 293.246 63.334C293.246 62.4863 293.49 61.8027 293.979 61.2832C294.467 60.7637 295.109 60.5039 295.906 60.5039C296.184 60.5039 296.432 60.5312 296.65 60.5859C296.873 60.6367 297.146 60.7344 297.471 60.8789V62.0156C296.932 61.6719 296.432 61.5 295.971 61.5C295.49 61.5 295.096 61.6699 294.787 62.0098C294.479 62.3457 294.324 62.7754 294.324 63.2988C294.324 63.8496 294.49 64.2871 294.822 64.6113C295.158 64.9355 295.609 65.0977 296.176 65.0977C296.586 65.0977 297.057 64.9785 297.588 64.7402Z"
            fill="black" fill-opacity="0.5" />
        <path
            d="M302.24 66V65.3145C302.014 65.5605 301.754 65.752 301.461 65.8887C301.172 66.0254 300.883 66.0938 300.594 66.0938C300.254 66.0938 299.939 66.0098 299.65 65.8418C299.365 65.6699 299.148 65.4395 299 65.1504C298.855 64.8574 298.783 64.373 298.783 63.6973V60.6094H299.85V63.6855C299.85 64.252 299.93 64.6484 300.09 64.875C300.254 65.0977 300.539 65.209 300.945 65.209C301.453 65.209 301.885 64.9609 302.24 64.4648V60.6094H303.307V66H302.24Z"
            fill="black" fill-opacity="0.5" />
        <path
            d="M304.303 60.6094H308.908L306.055 65.0039H308.908V66H304.186L307.016 61.6055H304.303V60.6094Z"
            fill="black" fill-opacity="0.5" />
        <path
            d="M313.314 60.6094H314.586L312.283 63.252L315.055 66H313.625L310.924 63.252L313.314 60.6094ZM309.811 57.8145H310.877V66H309.811V57.8145Z"
            fill="black" fill-opacity="0.5" />
        <path
            d="M316.631 60.6094V61.2949C317.107 60.7676 317.648 60.5039 318.254 60.5039C318.59 60.5039 318.902 60.5918 319.191 60.7676C319.48 60.9395 319.699 61.1777 319.848 61.4824C320 61.7832 320.076 62.2617 320.076 62.918V66H319.01V62.9297C319.01 62.3789 318.926 61.9863 318.758 61.752C318.59 61.5137 318.309 61.3945 317.914 61.3945C317.41 61.3945 316.982 61.6465 316.631 62.1504V66H315.541V60.6094H316.631Z"
            fill="black" fill-opacity="0.5" />
        <path
            d="M324.143 60.5977C324.963 60.5977 325.645 60.8633 326.188 61.3945C326.73 61.9219 327.002 62.5859 327.002 63.3867C327.002 64.1641 326.727 64.8105 326.176 65.3262C325.625 65.8379 324.932 66.0938 324.096 66.0938C323.287 66.0938 322.611 65.834 322.068 65.3145C321.525 64.791 321.254 64.1387 321.254 63.3574C321.254 62.5684 321.527 61.9121 322.074 61.3887C322.625 60.8613 323.314 60.5977 324.143 60.5977ZM324.084 61.5586C323.572 61.5586 323.152 61.7266 322.824 62.0625C322.496 62.3984 322.332 62.8262 322.332 63.3457C322.332 63.8613 322.5 64.2832 322.836 64.6113C323.172 64.9355 323.604 65.0977 324.131 65.0977C324.654 65.0977 325.082 64.9336 325.414 64.6055C325.75 64.2734 325.918 63.8496 325.918 63.334C325.918 62.8223 325.744 62.3984 325.396 62.0625C325.049 61.7266 324.611 61.5586 324.084 61.5586Z"
            fill="black" fill-opacity="0.5" />
        <path
            d="M327.43 61.4648L329.434 59.4961V60.6094H331.139V61.5703H329.434V64.2129C329.434 64.8301 329.689 65.1387 330.201 65.1387C330.584 65.1387 330.988 65.0098 331.414 64.752V65.748C331.004 65.9785 330.557 66.0938 330.072 66.0938C329.584 66.0938 329.178 65.9512 328.854 65.666C328.752 65.5801 328.668 65.4844 328.602 65.3789C328.535 65.2695 328.479 65.1289 328.432 64.957C328.389 64.7812 328.367 64.4492 328.367 63.9609V61.5703H327.43V61.4648Z"
            fill="black" fill-opacity="0.5" />
        <path
            d="M332.158 57.8145H333.225V61.3184C333.67 60.7754 334.223 60.5039 334.883 60.5039C335.242 60.5039 335.564 60.5938 335.85 60.7734C336.135 60.9531 336.346 61.2012 336.482 61.5176C336.623 61.834 336.693 62.3047 336.693 62.9297V66H335.627V62.666C335.627 62.2715 335.529 61.9551 335.334 61.7168C335.143 61.4746 334.889 61.3535 334.572 61.3535C334.338 61.3535 334.117 61.4141 333.91 61.5352C333.703 61.6562 333.475 61.8574 333.225 62.1387V66H332.158V57.8145Z"
            fill="black" fill-opacity="0.5" />
        <path
            d="M337.678 60.6094H342.283L339.43 65.0039H342.283V66H337.561L340.391 61.6055H337.678V60.6094Z"
            fill="black" fill-opacity="0.5" />
        <path
            d="M60 138V125.22H68.442V126.66H61.62V130.926H67.362V132.276H61.62V138H60ZM76.128 138.09C75.2401 138.118 74.3582 137.936 73.554 137.559C72.8839 137.227 72.3081 136.732 71.88 136.119C71.4513 135.494 71.1402 134.795 70.962 134.058C70.7675 133.281 70.6695 132.483 70.67 131.682V125.22H72.29V131.682C72.289 132.296 72.3523 132.908 72.479 133.509C72.5942 134.071 72.8057 134.61 73.104 135.1C73.3895 135.567 73.7913 135.952 74.27 136.218C74.8362 136.512 75.4686 136.654 76.106 136.632C76.7504 136.656 77.3896 136.51 77.96 136.209C78.4409 135.938 78.8438 135.547 79.13 135.075C79.4252 134.583 79.6351 134.044 79.751 133.482C79.8774 132.89 79.9407 132.287 79.94 131.682V125.22H81.56V131.682C81.5634 132.51 81.4626 133.336 81.26 134.139C81.0798 134.875 80.7589 135.568 80.315 136.182C79.8759 136.778 79.2982 137.259 78.632 137.582C77.8475 137.942 76.9906 138.116 76.128 138.09ZM84.804 138V125.22H86.424V136.56H93.552V138H84.804ZM95.676 138V125.22H97.296V136.56H104.424V138H95.676ZM114.054 127.9C113.886 127.712 113.692 127.548 113.478 127.414C113.221 127.249 112.95 127.108 112.668 126.991C112.351 126.86 112.023 126.757 111.687 126.685C111.323 126.606 110.952 126.567 110.58 126.568C109.813 126.508 109.047 126.703 108.402 127.124C108.173 127.304 107.99 127.537 107.868 127.802C107.746 128.067 107.689 128.358 107.702 128.649C107.68 129.041 107.809 129.426 108.062 129.726C108.371 130.031 108.752 130.253 109.169 130.372C109.667 130.539 110.3 130.713 111.069 130.892C111.856 131.053 112.626 131.287 113.369 131.592C113.955 131.82 114.471 132.2 114.863 132.692C115.235 133.231 115.418 133.877 115.385 134.531C115.399 135.081 115.278 135.626 115.034 136.119C114.803 136.565 114.466 136.947 114.053 137.232C113.605 137.537 113.105 137.756 112.577 137.878C111.976 138.022 111.36 138.093 110.742 138.09C110.103 138.091 109.466 138.022 108.842 137.883C108.236 137.75 107.647 137.549 107.087 137.283C106.533 137.017 106.013 136.685 105.539 136.293L106.313 134.925C106.537 135.154 106.788 135.355 107.06 135.525C107.392 135.737 107.741 135.92 108.104 136.074C108.514 136.247 108.938 136.38 109.373 136.474C109.833 136.576 110.302 136.628 110.773 136.627C111.514 136.669 112.251 136.498 112.897 136.134C113.139 135.984 113.337 135.772 113.471 135.52C113.605 135.268 113.669 134.985 113.658 134.7C113.668 134.49 113.636 134.28 113.563 134.083C113.491 133.885 113.379 133.704 113.235 133.551C112.878 133.22 112.45 132.974 111.984 132.833C111.432 132.642 110.76 132.45 109.968 132.259C109.224 132.083 108.495 131.846 107.79 131.55C107.264 131.339 106.808 130.987 106.47 130.533C106.156 130.048 106.001 129.477 106.026 128.9C106.003 128.167 106.211 127.445 106.62 126.836C107.031 126.262 107.6 125.819 108.258 125.562C109.008 125.265 109.809 125.118 110.616 125.131C111.158 125.127 111.699 125.188 112.227 125.311C112.711 125.424 113.181 125.592 113.627 125.811C114.052 126.022 114.45 126.282 114.815 126.585L114.054 127.9ZM127.086 126.66H122.676V138H121.056V126.66H116.646V125.22H127.086V126.66ZM131.964 125.22H133.332L138.552 138H136.824L135.39 134.256H129.89L128.454 138H126.726L131.964 125.22ZM134.908 133L132.648 127.1L130.378 133H134.908ZM139.326 131.5C139.325 130.718 139.46 129.941 139.726 129.205C139.996 128.455 140.398 127.76 140.914 127.153C141.441 126.531 142.095 126.028 142.831 125.677C143.636 125.3 144.516 125.113 145.405 125.128C146.438 125.099 147.458 125.371 148.339 125.911C149.122 126.396 149.752 127.091 150.157 127.918L148.879 128.746C148.66 128.249 148.331 127.809 147.916 127.459C147.546 127.152 147.117 126.922 146.656 126.784C146.227 126.654 145.781 126.587 145.333 126.584C144.68 126.571 144.034 126.72 143.452 127.016C142.917 127.298 142.449 127.692 142.08 128.172C141.707 128.654 141.423 129.2 141.243 129.783C141.059 130.362 140.965 130.966 140.964 131.574C140.962 132.225 141.075 132.87 141.297 133.482C141.507 134.073 141.821 134.622 142.224 135.102C142.611 135.564 143.088 135.943 143.624 136.218C144.17 136.496 144.775 136.637 145.388 136.632C145.855 136.629 146.318 136.551 146.76 136.4C147.237 136.237 147.681 135.99 148.07 135.669C148.491 135.322 148.824 134.881 149.042 134.382L150.392 135.12C150.129 135.755 149.708 136.313 149.17 136.74C148.62 137.183 147.996 137.524 147.327 137.748C146.681 137.971 146.003 138.086 145.32 138.09C144.482 138.099 143.654 137.904 142.908 137.523C142.181 137.149 141.535 136.636 141.008 136.011C140.475 135.38 140.056 134.661 139.77 133.887C139.479 133.125 139.329 132.316 139.326 131.5ZM152.79 138V125.22H154.41V132.286L160.998 125.202H162.744L157.614 130.844L163.032 138H161.214L156.588 131.817L154.41 134.088V138H152.79ZM173.47 125.238H176.188L177.52 129.324L178.852 125.238H181.588L179.41 131.178L180.71 134.578L183.91 125.218H187.132L182.148 138H179.592L177.522 133L175.47 138H172.896L167.928 125.22H171.128L174.35 134.58L175.61 131.18L173.47 125.238ZM197.57 135.444L197.592 138H188.628L188.61 125.22H197.41L197.428 127.812L191.542 127.776L191.56 130.296L196.582 130.314L196.6 132.69H191.542L191.56 135.408L197.57 135.444ZM210.314 134.724C210.338 135.383 210.131 136.029 209.729 136.551C209.317 137.053 208.773 137.43 208.158 137.64C207.459 137.887 206.721 138.008 205.98 138H199.752V125.22H206.862C207.419 125.207 207.965 125.374 208.419 125.697C208.856 126.014 209.203 126.439 209.427 126.93C209.658 127.42 209.778 127.955 209.778 128.496C209.777 129.1 209.615 129.693 209.31 130.215C208.997 130.762 208.518 131.194 207.942 131.448C208.63 131.635 209.239 132.039 209.679 132.6C210.125 133.216 210.35 133.964 210.318 134.724H210.314ZM207.308 134.13C207.313 133.878 207.258 133.627 207.146 133.401C207.047 133.203 206.902 133.032 206.723 132.901C206.542 132.773 206.324 132.706 206.102 132.712H202.702V135.5H205.978C206.215 135.504 206.449 135.442 206.653 135.32C206.85 135.201 207.014 135.034 207.13 134.834C207.254 134.62 207.316 134.377 207.312 134.13H207.308ZM202.7 127.74V130.386H205.6C205.809 130.387 206.014 130.337 206.2 130.242C206.391 130.141 206.55 129.988 206.659 129.801C206.787 129.573 206.849 129.315 206.839 129.054C206.848 128.805 206.795 128.558 206.686 128.334C206.595 128.153 206.457 128.001 206.286 127.893C206.112 127.789 205.913 127.736 205.71 127.74H202.7ZM216.978 138V125.22H221.748C222.977 125.176 224.195 125.472 225.267 126.075C226.186 126.619 226.926 127.418 227.4 128.375C227.888 129.375 228.134 130.475 228.12 131.588C228.148 132.765 227.876 133.93 227.328 134.972C226.817 135.915 226.045 136.69 225.105 137.204C224.073 137.753 222.917 138.027 221.748 138H216.978ZM225.114 131.592C225.126 130.914 224.99 130.241 224.714 129.621C224.472 129.074 224.074 128.611 223.57 128.289C223.022 127.959 222.391 127.794 221.752 127.812H219.93V135.412H221.748C222.393 135.433 223.029 135.261 223.575 134.917C224.079 134.58 224.476 134.105 224.718 133.549C224.989 132.933 225.124 132.265 225.114 131.592ZM239.19 135.444L239.208 138H230.244L230.226 125.22H239.026L239.044 127.812L233.158 127.776L233.176 130.296L238.198 130.314L238.216 132.69H233.16L233.178 135.408L239.19 135.444ZM243.222 125.22L246.228 134.544L249.198 125.22H252.312L247.67 138H244.77L240.09 125.22H243.222Z"
            fill="black" />
        <path d="M60 107H252.5" stroke="black" stroke-width="3" />
        <path d="M746 236H787" stroke="black" stroke-opacity="0.4" stroke-width="8" />
        <path
            d="M1014.33 359.814H1015.49L1012.18 368.035H1011.93L1009.25 361.379L1006.55 368.035H1006.3L1003 359.814H1004.18L1006.43 365.457L1008.7 359.814H1009.81L1012.09 365.457L1014.33 359.814Z"
            fill="black" />
        <path
            d="M1019.78 365.398H1015.98C1016.01 365.914 1016.18 366.324 1016.5 366.629C1016.82 366.934 1017.23 367.086 1017.74 367.086C1018.44 367.086 1019.09 366.867 1019.68 366.43V367.473C1019.35 367.691 1019.03 367.848 1018.7 367.941C1018.38 368.035 1018.01 368.082 1017.57 368.082C1016.98 368.082 1016.5 367.959 1016.13 367.713C1015.76 367.467 1015.47 367.137 1015.25 366.723C1015.03 366.305 1014.92 365.822 1014.92 365.275C1014.92 364.455 1015.15 363.789 1015.62 363.277C1016.08 362.762 1016.68 362.504 1017.43 362.504C1018.14 362.504 1018.71 362.754 1019.14 363.254C1019.56 363.754 1019.78 364.424 1019.78 365.264V365.398ZM1016.01 364.76H1018.72C1018.69 364.334 1018.57 364.006 1018.34 363.775C1018.11 363.545 1017.81 363.43 1017.43 363.43C1017.04 363.43 1016.73 363.545 1016.48 363.775C1016.24 364.006 1016.08 364.334 1016.01 364.76Z"
            fill="black" />
        <path
            d="M1020.89 359.814H1021.96V362.996C1022.42 362.66 1022.91 362.492 1023.43 362.492C1024.12 362.492 1024.67 362.75 1025.11 363.266C1025.54 363.781 1025.76 364.443 1025.76 365.252C1025.76 366.119 1025.5 366.811 1024.98 367.326C1024.46 367.838 1023.77 368.094 1022.9 368.094C1022.56 368.094 1022.19 368.057 1021.8 367.982C1021.42 367.908 1021.12 367.814 1020.89 367.701V359.814ZM1021.96 364.016V366.934C1022.32 367.043 1022.69 367.098 1023.07 367.098C1023.55 367.098 1023.93 366.93 1024.23 366.594C1024.53 366.258 1024.68 365.826 1024.68 365.299C1024.68 364.764 1024.54 364.328 1024.26 363.992C1023.98 363.656 1023.62 363.488 1023.17 363.488C1022.77 363.488 1022.37 363.664 1021.96 364.016Z"
            fill="black" />
        <path
            d="M1026.67 367.613V366.465C1026.97 366.676 1027.28 366.848 1027.59 366.98C1027.91 367.109 1028.17 367.174 1028.39 367.174C1028.61 367.174 1028.8 367.119 1028.96 367.01C1029.12 366.9 1029.2 366.77 1029.2 366.617C1029.2 366.461 1029.15 366.332 1029.04 366.23C1028.94 366.125 1028.72 365.975 1028.38 365.779C1027.69 365.396 1027.24 365.07 1027.02 364.801C1026.81 364.527 1026.71 364.23 1026.71 363.91C1026.71 363.496 1026.87 363.158 1027.19 362.896C1027.51 362.635 1027.93 362.504 1028.44 362.504C1028.96 362.504 1029.5 362.652 1030.06 362.949V364.004C1029.43 363.621 1028.91 363.43 1028.51 363.43C1028.3 363.43 1028.13 363.475 1028 363.564C1027.88 363.65 1027.81 363.766 1027.81 363.91C1027.81 364.035 1027.87 364.154 1027.98 364.268C1028.1 364.381 1028.3 364.518 1028.59 364.678L1028.97 364.895C1029.87 365.402 1030.32 365.965 1030.32 366.582C1030.32 367.023 1030.15 367.387 1029.8 367.672C1029.46 367.953 1029.01 368.094 1028.47 368.094C1028.15 368.094 1027.87 368.061 1027.62 367.994C1027.37 367.924 1027.05 367.797 1026.67 367.613Z"
            fill="black" />
        <path
            d="M1032.1 360.342C1032.28 360.342 1032.43 360.402 1032.55 360.523C1032.68 360.645 1032.74 360.793 1032.74 360.969C1032.74 361.141 1032.68 361.289 1032.55 361.414C1032.43 361.539 1032.28 361.602 1032.1 361.602C1031.94 361.602 1031.79 361.539 1031.67 361.414C1031.54 361.285 1031.48 361.137 1031.48 360.969C1031.48 360.805 1031.54 360.66 1031.67 360.535C1031.79 360.406 1031.94 360.342 1032.1 360.342ZM1031.58 362.609H1032.64V368H1031.58V362.609Z"
            fill="black" />
        <path
            d="M1033.43 363.465L1035.44 361.496V362.609H1037.14V363.57H1035.44V366.213C1035.44 366.83 1035.69 367.139 1036.21 367.139C1036.59 367.139 1036.99 367.01 1037.42 366.752V367.748C1037.01 367.979 1036.56 368.094 1036.08 368.094C1035.59 368.094 1035.18 367.951 1034.86 367.666C1034.76 367.58 1034.67 367.484 1034.61 367.379C1034.54 367.27 1034.48 367.129 1034.44 366.957C1034.39 366.781 1034.37 366.449 1034.37 365.961V363.57H1033.43V363.465Z"
            fill="black" />
        <path
            d="M1042.78 365.398H1038.99C1039.02 365.914 1039.19 366.324 1039.5 366.629C1039.82 366.934 1040.24 367.086 1040.74 367.086C1041.44 367.086 1042.09 366.867 1042.69 366.43V367.473C1042.36 367.691 1042.03 367.848 1041.71 367.941C1041.39 368.035 1041.01 368.082 1040.58 368.082C1039.98 368.082 1039.5 367.959 1039.13 367.713C1038.77 367.467 1038.47 367.137 1038.25 366.723C1038.03 366.305 1037.92 365.822 1037.92 365.275C1037.92 364.455 1038.15 363.789 1038.62 363.277C1039.08 362.762 1039.69 362.504 1040.43 362.504C1041.14 362.504 1041.71 362.754 1042.14 363.254C1042.57 363.754 1042.78 364.424 1042.78 365.264V365.398ZM1039.01 364.76H1041.72C1041.7 364.334 1041.57 364.006 1041.34 363.775C1041.12 363.545 1040.81 363.43 1040.43 363.43C1040.05 363.43 1039.73 363.545 1039.49 363.775C1039.24 364.006 1039.09 364.334 1039.01 364.76Z"
            fill="black" />
        <path
            d="M1044.44 366.67C1044.64 366.67 1044.81 366.74 1044.95 366.881C1045.09 367.021 1045.16 367.191 1045.16 367.391C1045.16 367.586 1045.09 367.752 1044.95 367.889C1044.81 368.025 1044.64 368.094 1044.44 368.094C1044.25 368.094 1044.09 368.025 1043.95 367.889C1043.8 367.752 1043.73 367.586 1043.73 367.391C1043.73 367.191 1043.8 367.021 1043.94 366.881C1044.08 366.74 1044.24 366.67 1044.44 366.67ZM1044.54 362.504C1044.74 362.504 1044.91 362.574 1045.05 362.715C1045.19 362.855 1045.26 363.025 1045.26 363.225C1045.26 363.42 1045.19 363.588 1045.05 363.729C1044.91 363.865 1044.74 363.934 1044.54 363.934C1044.35 363.934 1044.18 363.865 1044.04 363.729C1043.9 363.588 1043.83 363.42 1043.83 363.225C1043.83 363.025 1043.9 362.855 1044.04 362.715C1044.18 362.574 1044.34 362.504 1044.54 362.504Z"
            fill="black" />
        <path
            d="M1052.75 366.74V367.795C1052.22 367.994 1051.69 368.094 1051.18 368.094C1050.34 368.094 1049.66 367.844 1049.16 367.344C1048.66 366.844 1048.41 366.174 1048.41 365.334C1048.41 364.486 1048.65 363.803 1049.14 363.283C1049.63 362.764 1050.27 362.504 1051.07 362.504C1051.35 362.504 1051.6 362.531 1051.81 362.586C1052.04 362.637 1052.31 362.734 1052.63 362.879V364.016C1052.1 363.672 1051.6 363.5 1051.13 363.5C1050.65 363.5 1050.26 363.67 1049.95 364.01C1049.64 364.346 1049.49 364.775 1049.49 365.299C1049.49 365.85 1049.65 366.287 1049.99 366.611C1050.32 366.936 1050.77 367.098 1051.34 367.098C1051.75 367.098 1052.22 366.979 1052.75 366.74Z"
            fill="black" />
        <path
            d="M1057.4 368V367.314C1057.18 367.561 1056.92 367.752 1056.62 367.889C1056.34 368.025 1056.05 368.094 1055.76 368.094C1055.42 368.094 1055.1 368.01 1054.81 367.842C1054.53 367.67 1054.31 367.439 1054.16 367.15C1054.02 366.857 1053.95 366.373 1053.95 365.697V362.609H1055.01V365.686C1055.01 366.252 1055.09 366.648 1055.25 366.875C1055.42 367.098 1055.7 367.209 1056.11 367.209C1056.62 367.209 1057.05 366.961 1057.4 366.465V362.609H1058.47V368H1057.4Z"
            fill="black" />
        <path
            d="M1059.47 362.609H1064.07L1061.22 367.004H1064.07V368H1059.35L1062.18 363.605H1059.47V362.609Z"
            fill="black" />
        <path
            d="M1068.48 362.609H1069.75L1067.45 365.252L1070.22 368H1068.79L1066.09 365.252L1068.48 362.609ZM1064.97 359.814H1066.04V368H1064.97V359.814Z"
            fill="black" />
        <path
            d="M1071.79 362.609V363.295C1072.27 362.768 1072.81 362.504 1073.42 362.504C1073.75 362.504 1074.07 362.592 1074.36 362.768C1074.64 362.939 1074.86 363.178 1075.01 363.482C1075.16 363.783 1075.24 364.262 1075.24 364.918V368H1074.17V364.93C1074.17 364.379 1074.09 363.986 1073.92 363.752C1073.75 363.514 1073.47 363.395 1073.08 363.395C1072.57 363.395 1072.15 363.646 1071.79 364.15V368H1070.71V362.609H1071.79Z"
            fill="black" />
        <path
            d="M1079.31 362.598C1080.13 362.598 1080.81 362.863 1081.35 363.395C1081.89 363.922 1082.17 364.586 1082.17 365.387C1082.17 366.164 1081.89 366.811 1081.34 367.326C1080.79 367.838 1080.1 368.094 1079.26 368.094C1078.45 368.094 1077.78 367.834 1077.23 367.314C1076.69 366.791 1076.42 366.139 1076.42 365.357C1076.42 364.568 1076.69 363.912 1077.24 363.389C1077.79 362.861 1078.48 362.598 1079.31 362.598ZM1079.25 363.559C1078.74 363.559 1078.32 363.727 1077.99 364.062C1077.66 364.398 1077.5 364.826 1077.5 365.346C1077.5 365.861 1077.66 366.283 1078 366.611C1078.34 366.936 1078.77 367.098 1079.29 367.098C1079.82 367.098 1080.25 366.934 1080.58 366.605C1080.91 366.273 1081.08 365.85 1081.08 365.334C1081.08 364.822 1080.91 364.398 1080.56 364.062C1080.21 363.727 1079.78 363.559 1079.25 363.559Z"
            fill="black" />
        <path
            d="M1082.59 363.465L1084.6 361.496V362.609H1086.3V363.57H1084.6V366.213C1084.6 366.83 1084.85 367.139 1085.37 367.139C1085.75 367.139 1086.15 367.01 1086.58 366.752V367.748C1086.17 367.979 1085.72 368.094 1085.24 368.094C1084.75 368.094 1084.34 367.951 1084.02 367.666C1083.92 367.58 1083.83 367.484 1083.77 367.379C1083.7 367.27 1083.64 367.129 1083.6 366.957C1083.55 366.781 1083.53 366.449 1083.53 365.961V363.57H1082.59V363.465Z"
            fill="black" />
        <path
            d="M1087.32 359.814H1088.39V363.318C1088.83 362.775 1089.39 362.504 1090.05 362.504C1090.41 362.504 1090.73 362.594 1091.01 362.773C1091.3 362.953 1091.51 363.201 1091.65 363.518C1091.79 363.834 1091.86 364.305 1091.86 364.93V368H1090.79V364.666C1090.79 364.271 1090.69 363.955 1090.5 363.717C1090.31 363.475 1090.05 363.354 1089.74 363.354C1089.5 363.354 1089.28 363.414 1089.07 363.535C1088.87 363.656 1088.64 363.857 1088.39 364.139V368H1087.32V359.814Z"
            fill="black" />
        <path
            d="M1092.84 362.609H1097.45L1094.59 367.004H1097.45V368H1092.72L1095.55 363.605H1092.84V362.609Z"
            fill="black" />
        <path
            d="M1098.9 366.693C1099.1 366.693 1099.27 366.762 1099.41 366.898C1099.55 367.035 1099.62 367.203 1099.62 367.402C1099.62 367.598 1099.55 367.762 1099.41 367.895C1099.27 368.027 1099.1 368.094 1098.9 368.094C1098.7 368.094 1098.53 368.027 1098.4 367.895C1098.26 367.762 1098.19 367.598 1098.19 367.402C1098.19 367.203 1098.26 367.035 1098.4 366.898C1098.53 366.762 1098.7 366.693 1098.9 366.693Z"
            fill="black" />
        <path
            d="M1105.03 366.74V367.795C1104.49 367.994 1103.97 368.094 1103.46 368.094C1102.62 368.094 1101.94 367.844 1101.44 367.344C1100.94 366.844 1100.69 366.174 1100.69 365.334C1100.69 364.486 1100.93 363.803 1101.42 363.283C1101.91 362.764 1102.55 362.504 1103.35 362.504C1103.62 362.504 1103.87 362.531 1104.09 362.586C1104.31 362.637 1104.59 362.734 1104.91 362.879V364.016C1104.37 363.672 1103.87 363.5 1103.41 363.5C1102.93 363.5 1102.54 363.67 1102.23 364.01C1101.92 364.346 1101.77 364.775 1101.77 365.299C1101.77 365.85 1101.93 366.287 1102.26 366.611C1102.6 366.936 1103.05 367.098 1103.62 367.098C1104.03 367.098 1104.5 366.979 1105.03 366.74Z"
            fill="black" />
        <path
            d="M1108.83 362.598C1109.65 362.598 1110.33 362.863 1110.87 363.395C1111.41 363.922 1111.69 364.586 1111.69 365.387C1111.69 366.164 1111.41 366.811 1110.86 367.326C1110.31 367.838 1109.62 368.094 1108.78 368.094C1107.97 368.094 1107.29 367.834 1106.75 367.314C1106.21 366.791 1105.94 366.139 1105.94 365.357C1105.94 364.568 1106.21 363.912 1106.76 363.389C1107.31 362.861 1108 362.598 1108.83 362.598ZM1108.77 363.559C1108.26 363.559 1107.84 363.727 1107.51 364.062C1107.18 364.398 1107.02 364.826 1107.02 365.346C1107.02 365.861 1107.18 366.283 1107.52 366.611C1107.86 366.936 1108.29 367.098 1108.81 367.098C1109.34 367.098 1109.77 366.934 1110.1 366.605C1110.43 366.273 1110.6 365.85 1110.6 365.334C1110.6 364.822 1110.43 364.398 1110.08 364.062C1109.73 363.727 1109.29 363.559 1108.77 363.559Z"
            fill="black" />
        <path
            d="M1117.29 364.086V368H1116.21V365C1116.21 364.402 1116.13 363.986 1115.97 363.752C1115.81 363.514 1115.54 363.395 1115.14 363.395C1114.91 363.395 1114.71 363.445 1114.52 363.547C1114.34 363.648 1114.13 363.828 1113.89 364.086V368H1112.82V362.609H1113.89V363.318C1114.43 362.775 1114.96 362.504 1115.48 362.504C1116.17 362.504 1116.7 362.828 1117.07 363.477C1117.64 362.82 1118.24 362.492 1118.86 362.492C1119.38 362.492 1119.81 362.684 1120.15 363.066C1120.49 363.449 1120.66 364.033 1120.66 364.818V368H1119.59V364.807C1119.59 364.357 1119.5 364.014 1119.31 363.775C1119.13 363.537 1118.87 363.418 1118.52 363.418C1118.08 363.418 1117.67 363.641 1117.29 364.086Z"
            fill="black" />
        <path
            d="M877.516 359.768H878.342L882.004 368H880.803L879.713 365.574H876.232L875.201 368H874L877.516 359.768ZM879.232 364.531L877.914 361.566L876.689 364.531H879.232Z"
            fill="black" />
        <path
            d="M885.754 362.609H886.908L884.529 368.094H884.172L881.734 362.609H882.9L884.354 365.926L885.754 362.609Z"
            fill="black" />
        <path
            d="M891.104 364.76V367.051C891.104 367.234 891.166 367.326 891.291 367.326C891.42 367.326 891.621 367.23 891.895 367.039V367.689C891.652 367.846 891.457 367.951 891.309 368.006C891.164 368.064 891.012 368.094 890.852 368.094C890.395 368.094 890.125 367.914 890.043 367.555C889.59 367.906 889.107 368.082 888.596 368.082C888.221 368.082 887.908 367.959 887.658 367.713C887.408 367.463 887.283 367.15 887.283 366.775C887.283 366.436 887.404 366.133 887.646 365.867C887.893 365.598 888.24 365.385 888.689 365.229L890.055 364.76V364.473C890.055 363.824 889.73 363.5 889.082 363.5C888.5 363.5 887.934 363.801 887.383 364.402V363.236C887.797 362.748 888.393 362.504 889.17 362.504C889.752 362.504 890.219 362.656 890.57 362.961C890.688 363.059 890.793 363.189 890.887 363.354C890.98 363.514 891.039 363.676 891.062 363.84C891.09 364 891.104 364.307 891.104 364.76ZM890.055 366.934V365.334L889.34 365.609C888.977 365.754 888.719 365.9 888.566 366.049C888.418 366.193 888.344 366.375 888.344 366.594C888.344 366.816 888.414 366.998 888.555 367.139C888.699 367.279 888.885 367.35 889.111 367.35C889.451 367.35 889.766 367.211 890.055 366.934Z"
            fill="black" />
        <path
            d="M893.389 360.342C893.564 360.342 893.715 360.402 893.84 360.523C893.965 360.645 894.027 360.793 894.027 360.969C894.027 361.141 893.965 361.289 893.84 361.414C893.715 361.539 893.564 361.602 893.389 361.602C893.225 361.602 893.08 361.539 892.955 361.414C892.83 361.285 892.768 361.137 892.768 360.969C892.768 360.805 892.83 360.66 892.955 360.535C893.08 360.406 893.225 360.342 893.389 360.342ZM892.861 362.609H893.928V368H892.861V362.609Z"
            fill="black" />
        <path d="M895.498 359.814H896.564V368H895.498V359.814Z" fill="black" />
        <path
            d="M901.498 364.76V367.051C901.498 367.234 901.561 367.326 901.686 367.326C901.814 367.326 902.016 367.23 902.289 367.039V367.689C902.047 367.846 901.852 367.951 901.703 368.006C901.559 368.064 901.406 368.094 901.246 368.094C900.789 368.094 900.52 367.914 900.438 367.555C899.984 367.906 899.502 368.082 898.99 368.082C898.615 368.082 898.303 367.959 898.053 367.713C897.803 367.463 897.678 367.15 897.678 366.775C897.678 366.436 897.799 366.133 898.041 365.867C898.287 365.598 898.635 365.385 899.084 365.229L900.449 364.76V364.473C900.449 363.824 900.125 363.5 899.477 363.5C898.895 363.5 898.328 363.801 897.777 364.402V363.236C898.191 362.748 898.787 362.504 899.564 362.504C900.146 362.504 900.613 362.656 900.965 362.961C901.082 363.059 901.188 363.189 901.281 363.354C901.375 363.514 901.434 363.676 901.457 363.84C901.484 364 901.498 364.307 901.498 364.76ZM900.449 366.934V365.334L899.734 365.609C899.371 365.754 899.113 365.9 898.961 366.049C898.812 366.193 898.738 366.375 898.738 366.594C898.738 366.816 898.809 366.998 898.949 367.139C899.094 367.279 899.279 367.35 899.506 367.35C899.846 367.35 900.16 367.211 900.449 366.934Z"
            fill="black" />
        <path
            d="M903.186 359.814H904.252V362.996C904.713 362.66 905.205 362.492 905.729 362.492C906.412 362.492 906.971 362.75 907.404 363.266C907.838 363.781 908.055 364.443 908.055 365.252C908.055 366.119 907.795 366.811 907.275 367.326C906.76 367.838 906.068 368.094 905.201 368.094C904.854 368.094 904.486 368.057 904.1 367.982C903.717 367.908 903.412 367.814 903.186 367.701V359.814ZM904.252 364.016V366.934C904.615 367.043 904.988 367.098 905.371 367.098C905.844 367.098 906.229 366.93 906.525 366.594C906.826 366.258 906.977 365.826 906.977 365.299C906.977 364.764 906.836 364.328 906.555 363.992C906.277 363.656 905.914 363.488 905.465 363.488C905.066 363.488 904.662 363.664 904.252 364.016Z"
            fill="black" />
        <path d="M909.256 359.814H910.322V368H909.256V359.814Z" fill="black" />
        <path
            d="M916.463 365.398H912.672C912.699 365.914 912.871 366.324 913.188 366.629C913.508 366.934 913.92 367.086 914.424 367.086C915.127 367.086 915.775 366.867 916.369 366.43V367.473C916.041 367.691 915.715 367.848 915.391 367.941C915.07 368.035 914.693 368.082 914.26 368.082C913.666 368.082 913.186 367.959 912.818 367.713C912.451 367.467 912.156 367.137 911.934 366.723C911.715 366.305 911.605 365.822 911.605 365.275C911.605 364.455 911.838 363.789 912.303 363.277C912.768 362.762 913.371 362.504 914.113 362.504C914.828 362.504 915.398 362.754 915.824 363.254C916.25 363.754 916.463 364.424 916.463 365.264V365.398ZM912.695 364.76H915.408C915.381 364.334 915.254 364.006 915.027 363.775C914.801 363.545 914.496 363.43 914.113 363.43C913.73 363.43 913.416 363.545 913.17 363.775C912.928 364.006 912.77 364.334 912.695 364.76Z"
            fill="black" />
        <path
            d="M921.086 362.609V362.287C921.086 361.42 921.27 360.773 921.637 360.348C922.008 359.922 922.451 359.709 922.967 359.709C923.189 359.709 923.453 359.744 923.758 359.814V360.857C923.586 360.795 923.422 360.764 923.266 360.764C922.848 360.764 922.557 360.875 922.393 361.098C922.232 361.32 922.152 361.717 922.152 362.287V362.609H923.113V363.57H922.152V368H921.086V363.57H920.312V362.609H921.086Z"
            fill="black" />
        <path
            d="M926.424 362.598C927.244 362.598 927.926 362.863 928.469 363.395C929.012 363.922 929.283 364.586 929.283 365.387C929.283 366.164 929.008 366.811 928.457 367.326C927.906 367.838 927.213 368.094 926.377 368.094C925.568 368.094 924.893 367.834 924.35 367.314C923.807 366.791 923.535 366.139 923.535 365.357C923.535 364.568 923.809 363.912 924.355 363.389C924.906 362.861 925.596 362.598 926.424 362.598ZM926.365 363.559C925.854 363.559 925.434 363.727 925.105 364.062C924.777 364.398 924.613 364.826 924.613 365.346C924.613 365.861 924.781 366.283 925.117 366.611C925.453 366.936 925.885 367.098 926.412 367.098C926.936 367.098 927.363 366.934 927.695 366.605C928.031 366.273 928.199 365.85 928.199 365.334C928.199 364.822 928.025 364.398 927.678 364.062C927.33 363.727 926.893 363.559 926.365 363.559Z"
            fill="black" />
        <path
            d="M931.609 362.609V363.846L931.668 363.752C932.184 362.92 932.699 362.504 933.215 362.504C933.617 362.504 934.037 362.707 934.475 363.113L933.912 364.051C933.541 363.699 933.197 363.523 932.881 363.523C932.537 363.523 932.238 363.688 931.984 364.016C931.734 364.344 931.609 364.732 931.609 365.182V368H930.537V362.609H931.609Z"
            fill="black" />
        <path
            d="M938.541 359.814H939.607V363.318C940.053 362.775 940.605 362.504 941.266 362.504C941.625 362.504 941.947 362.594 942.232 362.773C942.518 362.953 942.729 363.201 942.865 363.518C943.006 363.834 943.076 364.305 943.076 364.93V368H942.01V364.666C942.01 364.271 941.912 363.955 941.717 363.717C941.525 363.475 941.271 363.354 940.955 363.354C940.721 363.354 940.5 363.414 940.293 363.535C940.086 363.656 939.857 363.857 939.607 364.139V368H938.541V359.814Z"
            fill="black" />
        <path
            d="M945.115 360.342C945.291 360.342 945.441 360.402 945.566 360.523C945.691 360.645 945.754 360.793 945.754 360.969C945.754 361.141 945.691 361.289 945.566 361.414C945.441 361.539 945.291 361.602 945.115 361.602C944.951 361.602 944.807 361.539 944.682 361.414C944.557 361.285 944.494 361.137 944.494 360.969C944.494 360.805 944.557 360.66 944.682 360.535C944.807 360.406 944.951 360.342 945.115 360.342ZM944.588 362.609H945.654V368H944.588V362.609Z"
            fill="black" />
        <path
            d="M948.344 362.609V363.846L948.402 363.752C948.918 362.92 949.434 362.504 949.949 362.504C950.352 362.504 950.771 362.707 951.209 363.113L950.646 364.051C950.275 363.699 949.932 363.523 949.615 363.523C949.271 363.523 948.973 363.688 948.719 364.016C948.469 364.344 948.344 364.732 948.344 365.182V368H947.271V362.609H948.344Z"
            fill="black" />
        <path
            d="M956.307 365.398H952.516C952.543 365.914 952.715 366.324 953.031 366.629C953.352 366.934 953.764 367.086 954.268 367.086C954.971 367.086 955.619 366.867 956.213 366.43V367.473C955.885 367.691 955.559 367.848 955.234 367.941C954.914 368.035 954.537 368.082 954.104 368.082C953.51 368.082 953.029 367.959 952.662 367.713C952.295 367.467 952 367.137 951.777 366.723C951.559 366.305 951.449 365.822 951.449 365.275C951.449 364.455 951.682 363.789 952.146 363.277C952.611 362.762 953.215 362.504 953.957 362.504C954.672 362.504 955.242 362.754 955.668 363.254C956.094 363.754 956.307 364.424 956.307 365.264V365.398ZM952.539 364.76H955.252C955.225 364.334 955.098 364.006 954.871 363.775C954.645 363.545 954.34 363.43 953.957 363.43C953.574 363.43 953.26 363.545 953.014 363.775C952.771 364.006 952.613 364.334 952.539 364.76Z"
            fill="black" />
        <path
            d="M962.4 367.391C962.4 367.586 962.33 367.752 962.189 367.889C962.053 368.025 961.885 368.094 961.686 368.094C961.475 368.094 961.297 368.027 961.152 367.895C961.012 367.758 960.941 367.59 960.941 367.391C960.941 367.18 961.012 367.004 961.152 366.863C961.293 366.719 961.465 366.646 961.668 366.646C961.879 366.646 962.053 366.719 962.189 366.863C962.33 367.004 962.4 367.18 962.4 367.391ZM961.551 365.445L961.457 365.146C961.375 364.912 961.279 364.379 961.17 363.547C961.064 362.715 961.012 362.008 961.012 361.426C961.012 360.281 961.236 359.709 961.686 359.709C962.123 359.709 962.342 360.266 962.342 361.379C962.342 362.305 962.254 363.252 962.078 364.221L961.92 365.117L961.826 365.457C961.791 365.578 961.738 365.639 961.668 365.639C961.625 365.639 961.586 365.574 961.551 365.445Z"
            fill="black" />
        <rect x="563" y="352" width="52" height="21" fill="#555555" />
        <rect x="615" y="352" width="54" height="21" fill="#BA68C8" />
        <path
            d="M623.19 366C622.897 366 622.687 365.827 622.56 365.48L620.16 359H621.15L623.21 364.82H623.23L625.3 359H626.29L623.66 366H623.19Z"
            fill="black" />
        <path d="M627.285 359H628.235V366H627.285V359Z" fill="black" />
        <path
            d="M631.702 366.08C631.056 366.08 630.539 365.887 630.152 365.5C629.766 365.113 629.572 364.593 629.572 363.94H630.502C630.502 364.333 630.612 364.647 630.832 364.88C631.059 365.113 631.356 365.23 631.722 365.23H632.832C633.199 365.23 633.492 365.153 633.712 365C633.932 364.84 634.042 364.63 634.042 364.37V363.83C634.042 363.623 633.962 363.45 633.802 363.31C633.649 363.17 633.429 363.077 633.142 363.03L631.322 362.73C630.789 362.643 630.376 362.46 630.082 362.18C629.796 361.9 629.652 361.55 629.652 361.13V360.58C629.652 360.08 629.842 359.68 630.222 359.38C630.609 359.073 631.116 358.92 631.742 358.92H632.872C633.266 358.92 633.612 359.003 633.912 359.17C634.219 359.33 634.456 359.56 634.622 359.86C634.789 360.153 634.872 360.493 634.872 360.88H633.932C633.932 360.547 633.836 360.28 633.642 360.08C633.449 359.873 633.192 359.77 632.872 359.77H631.742C631.402 359.77 631.126 359.847 630.912 360C630.706 360.147 630.602 360.35 630.602 360.61V361.06C630.602 361.273 630.676 361.45 630.822 361.59C630.976 361.73 631.192 361.827 631.472 361.88L633.272 362.19C633.826 362.283 634.249 362.467 634.542 362.74C634.842 363.007 634.992 363.343 634.992 363.75V364.4C634.992 364.907 634.796 365.313 634.402 365.62C634.016 365.927 633.499 366.08 632.852 366.08H631.702Z"
            fill="black" />
        <path d="M636.279 359H637.229V366H636.279V359Z" fill="black" />
        <path d="M640.526 359.83H638.306V359H643.696V359.83H641.476V366H640.526V359.83Z"
            fill="black" />
        <path
            d="M646.603 366.08C646.117 366.08 645.687 365.973 645.313 365.76C644.947 365.547 644.66 365.247 644.453 364.86C644.253 364.473 644.153 364.023 644.153 363.51V361.49C644.153 360.977 644.253 360.527 644.453 360.14C644.66 359.753 644.95 359.453 645.323 359.24C645.697 359.027 646.127 358.92 646.613 358.92H647.673C648.16 358.92 648.587 359.027 648.953 359.24C649.327 359.453 649.613 359.753 649.813 360.14C650.02 360.527 650.123 360.977 650.123 361.49V363.51C650.123 364.023 650.02 364.473 649.813 364.86C649.613 365.247 649.327 365.547 648.953 365.76C648.58 365.973 648.153 366.08 647.673 366.08H646.603ZM647.653 365.23C648.107 365.23 648.473 365.073 648.753 364.76C649.033 364.44 649.173 364.017 649.173 363.49V361.51C649.173 360.983 649.033 360.563 648.753 360.25C648.473 359.93 648.107 359.77 647.653 359.77H646.623C646.17 359.77 645.803 359.93 645.523 360.25C645.243 360.563 645.103 360.983 645.103 361.51V363.49C645.103 364.017 645.24 364.44 645.513 364.76C645.793 365.073 646.16 365.23 646.613 365.23H647.653Z"
            fill="black" />
        <path
            d="M651.404 359H654.914C655.454 359 655.887 359.153 656.214 359.46C656.547 359.76 656.714 360.157 656.714 360.65V361.37C656.714 361.717 656.604 362.023 656.384 362.29C656.171 362.557 655.877 362.75 655.504 362.87V362.88C655.897 363.113 656.191 363.54 656.384 364.16L656.934 366H655.954L655.414 364.2C655.321 363.887 655.171 363.64 654.964 363.46C654.764 363.28 654.534 363.19 654.274 363.19H652.354V366H651.404V359ZM654.654 362.35C654.987 362.35 655.254 362.26 655.454 362.08C655.661 361.9 655.764 361.663 655.764 361.37V360.64C655.764 360.4 655.684 360.207 655.524 360.06C655.364 359.913 655.154 359.84 654.894 359.84H652.354V362.35H654.654Z"
            fill="black" />
        <path
            d="M659.886 366.08C659.239 366.08 658.723 365.887 658.336 365.5C657.949 365.113 657.756 364.593 657.756 363.94H658.686C658.686 364.333 658.796 364.647 659.016 364.88C659.243 365.113 659.539 365.23 659.906 365.23H661.016C661.383 365.23 661.676 365.153 661.896 365C662.116 364.84 662.226 364.63 662.226 364.37V363.83C662.226 363.623 662.146 363.45 661.986 363.31C661.833 363.17 661.613 363.077 661.326 363.03L659.506 362.73C658.973 362.643 658.559 362.46 658.266 362.18C657.979 361.9 657.836 361.55 657.836 361.13V360.58C657.836 360.08 658.026 359.68 658.406 359.38C658.793 359.073 659.299 358.92 659.926 358.92H661.056C661.449 358.92 661.796 359.003 662.096 359.17C662.403 359.33 662.639 359.56 662.806 359.86C662.973 360.153 663.056 360.493 663.056 360.88H662.116C662.116 360.547 662.019 360.28 661.826 360.08C661.633 359.873 661.376 359.77 661.056 359.77H659.926C659.586 359.77 659.309 359.847 659.096 360C658.889 360.147 658.786 360.35 658.786 360.61V361.06C658.786 361.273 658.859 361.45 659.006 361.59C659.159 361.73 659.376 361.827 659.656 361.88L661.456 362.19C662.009 362.283 662.433 362.467 662.726 362.74C663.026 363.007 663.176 363.343 663.176 363.75V364.4C663.176 364.907 662.979 365.313 662.586 365.62C662.199 365.927 661.683 366.08 661.036 366.08H659.886Z"
            fill="black" />
        <rect x="395" y="352" width="50" height="21" fill="#555555" />
        <rect x="445" y="352" width="89" height="21" fill="#8CECFF" />
        <path
            d="M452.91 366.08C452.443 366.08 452.03 365.973 451.67 365.76C451.31 365.547 451.03 365.247 450.83 364.86C450.637 364.467 450.54 364.013 450.54 363.5V361.5C450.54 360.987 450.64 360.537 450.84 360.15C451.04 359.757 451.32 359.453 451.68 359.24C452.047 359.027 452.47 358.92 452.95 358.92H454.01C454.463 358.92 454.863 359.02 455.21 359.22C455.563 359.413 455.833 359.687 456.02 360.04C456.213 360.393 456.31 360.8 456.31 361.26H455.38C455.38 360.813 455.253 360.453 455 360.18C454.753 359.907 454.423 359.77 454.01 359.77H452.95C452.517 359.77 452.163 359.93 451.89 360.25C451.623 360.57 451.49 360.993 451.49 361.52V363.48C451.49 364.007 451.62 364.43 451.88 364.75C452.14 365.07 452.483 365.23 452.91 365.23H453.99C454.417 365.23 454.757 365.08 455.01 364.78C455.27 364.473 455.4 364.073 455.4 363.58H456.33C456.33 364.073 456.233 364.51 456.04 364.89C455.847 365.27 455.573 365.563 455.22 365.77C454.867 365.977 454.457 366.08 453.99 366.08H452.91Z"
            fill="black" />
        <path
            d="M459.679 366.08C459.193 366.08 458.763 365.973 458.389 365.76C458.023 365.547 457.736 365.247 457.529 364.86C457.329 364.473 457.229 364.023 457.229 363.51V361.49C457.229 360.977 457.329 360.527 457.529 360.14C457.736 359.753 458.026 359.453 458.399 359.24C458.773 359.027 459.203 358.92 459.689 358.92H460.749C461.236 358.92 461.663 359.027 462.029 359.24C462.403 359.453 462.689 359.753 462.889 360.14C463.096 360.527 463.199 360.977 463.199 361.49V363.51C463.199 364.023 463.096 364.473 462.889 364.86C462.689 365.247 462.403 365.547 462.029 365.76C461.656 365.973 461.229 366.08 460.749 366.08H459.679ZM460.729 365.23C461.183 365.23 461.549 365.073 461.829 364.76C462.109 364.44 462.249 364.017 462.249 363.49V361.51C462.249 360.983 462.109 360.563 461.829 360.25C461.549 359.93 461.183 359.77 460.729 359.77H459.699C459.246 359.77 458.879 359.93 458.599 360.25C458.319 360.563 458.179 360.983 458.179 361.51V363.49C458.179 364.017 458.316 364.44 458.589 364.76C458.869 365.073 459.236 365.23 459.689 365.23H460.729Z"
            fill="black" />
        <path
            d="M464.48 359H465.36L469.06 364.47V359H469.99V366H469.12L465.41 360.55V366H464.48V359Z"
            fill="black" />
        <path d="M473.192 359.83H470.972V359H476.362V359.83H474.142V366H473.192V359.83Z"
            fill="black" />
        <path
            d="M477.342 359H480.852C481.392 359 481.825 359.153 482.152 359.46C482.485 359.76 482.652 360.157 482.652 360.65V361.37C482.652 361.717 482.542 362.023 482.322 362.29C482.108 362.557 481.815 362.75 481.442 362.87V362.88C481.835 363.113 482.128 363.54 482.322 364.16L482.872 366H481.892L481.352 364.2C481.258 363.887 481.108 363.64 480.902 363.46C480.702 363.28 480.472 363.19 480.212 363.19H478.292V366H477.342V359ZM480.592 362.35C480.925 362.35 481.192 362.26 481.392 362.08C481.598 361.9 481.702 361.663 481.702 361.37V360.64C481.702 360.4 481.622 360.207 481.462 360.06C481.302 359.913 481.092 359.84 480.832 359.84H478.292V362.35H480.592Z"
            fill="black" />
        <path d="M484.033 359H484.983V366H484.033V359Z" fill="black" />
        <path
            d="M487.32 366C487.094 366 486.91 365.933 486.77 365.8C486.63 365.66 486.56 365.477 486.56 365.25V359H489.69C490.297 359 490.784 359.147 491.15 359.44C491.524 359.727 491.71 360.11 491.71 360.59V361.11C491.71 361.35 491.654 361.577 491.54 361.79C491.434 362.003 491.28 362.177 491.08 362.31V362.32C491.4 362.413 491.657 362.587 491.85 362.84C492.05 363.087 492.15 363.373 492.15 363.7V364.2C492.15 364.747 491.967 365.183 491.6 365.51C491.24 365.837 490.75 366 490.13 366H487.32ZM489.83 362.07C490.11 362.07 490.334 361.983 490.5 361.81C490.674 361.63 490.76 361.393 490.76 361.1V360.64C490.76 360.4 490.66 360.207 490.46 360.06C490.26 359.913 490 359.84 489.68 359.84H487.51V362.07H489.83ZM490.03 365.16C490.39 365.16 490.674 365.07 490.88 364.89C491.094 364.71 491.2 364.47 491.2 364.17V363.7C491.2 363.453 491.11 363.253 490.93 363.1C490.75 362.947 490.514 362.87 490.22 362.87H487.51V365.16H490.03Z"
            fill="black" />
        <path
            d="M495.499 366.08C495.046 366.08 494.646 365.983 494.299 365.79C493.959 365.59 493.696 365.31 493.509 364.95C493.323 364.59 493.229 364.177 493.229 363.71V359H494.179V363.71C494.179 364.163 494.299 364.53 494.539 364.81C494.786 365.09 495.106 365.23 495.499 365.23H496.569C496.963 365.23 497.279 365.09 497.519 364.81C497.766 364.53 497.889 364.163 497.889 363.71V359H498.839V363.71C498.839 364.177 498.746 364.59 498.559 364.95C498.373 365.31 498.106 365.59 497.759 365.79C497.419 365.983 497.023 366.08 496.569 366.08H495.499Z"
            fill="black" />
        <path d="M502.001 359.83H499.781V359H505.171V359.83H502.951V366H502.001V359.83Z"
            fill="black" />
        <path d="M506.25 359H507.2V366H506.25V359Z" fill="black" />
        <path
            d="M511.027 366.08C510.54 366.08 510.11 365.973 509.737 365.76C509.37 365.547 509.084 365.247 508.877 364.86C508.677 364.473 508.577 364.023 508.577 363.51V361.49C508.577 360.977 508.677 360.527 508.877 360.14C509.084 359.753 509.374 359.453 509.747 359.24C510.12 359.027 510.55 358.92 511.037 358.92H512.097C512.584 358.92 513.01 359.027 513.377 359.24C513.75 359.453 514.037 359.753 514.237 360.14C514.444 360.527 514.547 360.977 514.547 361.49V363.51C514.547 364.023 514.444 364.473 514.237 364.86C514.037 365.247 513.75 365.547 513.377 365.76C513.004 365.973 512.577 366.08 512.097 366.08H511.027ZM512.077 365.23C512.53 365.23 512.897 365.073 513.177 364.76C513.457 364.44 513.597 364.017 513.597 363.49V361.51C513.597 360.983 513.457 360.563 513.177 360.25C512.897 359.93 512.53 359.77 512.077 359.77H511.047C510.594 359.77 510.227 359.93 509.947 360.25C509.667 360.563 509.527 360.983 509.527 361.51V363.49C509.527 364.017 509.664 364.44 509.937 364.76C510.217 365.073 510.584 365.23 511.037 365.23H512.077Z"
            fill="black" />
        <path
            d="M515.828 359H516.708L520.408 364.47V359H521.338V366H520.468L516.758 360.55V366H515.828V359Z"
            fill="black" />
        <path
            d="M524.71 366.08C524.063 366.08 523.547 365.887 523.16 365.5C522.773 365.113 522.58 364.593 522.58 363.94H523.51C523.51 364.333 523.62 364.647 523.84 364.88C524.067 365.113 524.363 365.23 524.73 365.23H525.84C526.207 365.23 526.5 365.153 526.72 365C526.94 364.84 527.05 364.63 527.05 364.37V363.83C527.05 363.623 526.97 363.45 526.81 363.31C526.657 363.17 526.437 363.077 526.15 363.03L524.33 362.73C523.797 362.643 523.383 362.46 523.09 362.18C522.803 361.9 522.66 361.55 522.66 361.13V360.58C522.66 360.08 522.85 359.68 523.23 359.38C523.617 359.073 524.123 358.92 524.75 358.92H525.88C526.273 358.92 526.62 359.003 526.92 359.17C527.227 359.33 527.463 359.56 527.63 359.86C527.797 360.153 527.88 360.493 527.88 360.88H526.94C526.94 360.547 526.843 360.28 526.65 360.08C526.457 359.873 526.2 359.77 525.88 359.77H524.75C524.41 359.77 524.133 359.847 523.92 360C523.713 360.147 523.61 360.35 523.61 360.61V361.06C523.61 361.273 523.683 361.45 523.83 361.59C523.983 361.73 524.2 361.827 524.48 361.88L526.28 362.19C526.833 362.283 527.257 362.467 527.55 362.74C527.85 363.007 528 363.343 528 363.75V364.4C528 364.907 527.803 365.313 527.41 365.62C527.023 365.927 526.507 366.08 525.86 366.08H524.71Z"
            fill="black" />
        <rect x="267" y="352" width="31" height="21" fill="#555555" />
        <rect x="298" y="352" width="69" height="21" fill="#FF9EB6" />
        <path d="M303.74 359H308.55V359.84H304.69V362.17H308.18V363.01H304.69V366H303.74V359Z"
            fill="black" />
        <path
            d="M311.644 366.08C311.158 366.08 310.728 365.973 310.354 365.76C309.988 365.547 309.701 365.247 309.494 364.86C309.294 364.473 309.194 364.023 309.194 363.51V361.49C309.194 360.977 309.294 360.527 309.494 360.14C309.701 359.753 309.991 359.453 310.364 359.24C310.738 359.027 311.168 358.92 311.654 358.92H312.714C313.201 358.92 313.628 359.027 313.994 359.24C314.368 359.453 314.654 359.753 314.854 360.14C315.061 360.527 315.164 360.977 315.164 361.49V363.51C315.164 364.023 315.061 364.473 314.854 364.86C314.654 365.247 314.368 365.547 313.994 365.76C313.621 365.973 313.194 366.08 312.714 366.08H311.644ZM312.694 365.23C313.148 365.23 313.514 365.073 313.794 364.76C314.074 364.44 314.214 364.017 314.214 363.49V361.51C314.214 360.983 314.074 360.563 313.794 360.25C313.514 359.93 313.148 359.77 312.694 359.77H311.664C311.211 359.77 310.844 359.93 310.564 360.25C310.284 360.563 310.144 360.983 310.144 361.51V363.49C310.144 364.017 310.281 364.44 310.554 364.76C310.834 365.073 311.201 365.23 311.654 365.23H312.694Z"
            fill="black" />
        <path
            d="M317.205 366C316.972 366 316.785 365.933 316.645 365.8C316.512 365.667 316.445 365.487 316.445 365.26V359H317.395V365.16H321.195V366H317.205Z"
            fill="black" />
        <path
            d="M322.898 366C322.665 366 322.478 365.933 322.338 365.8C322.205 365.667 322.138 365.487 322.138 365.26V359H323.088V365.16H326.888V366H322.898Z"
            fill="black" />
        <path
            d="M329.818 366.08C329.331 366.08 328.901 365.973 328.528 365.76C328.161 365.547 327.875 365.247 327.668 364.86C327.468 364.473 327.368 364.023 327.368 363.51V361.49C327.368 360.977 327.468 360.527 327.668 360.14C327.875 359.753 328.165 359.453 328.538 359.24C328.911 359.027 329.341 358.92 329.828 358.92H330.888C331.375 358.92 331.801 359.027 332.168 359.24C332.541 359.453 332.828 359.753 333.028 360.14C333.235 360.527 333.338 360.977 333.338 361.49V363.51C333.338 364.023 333.235 364.473 333.028 364.86C332.828 365.247 332.541 365.547 332.168 365.76C331.795 365.973 331.368 366.08 330.888 366.08H329.818ZM330.868 365.23C331.321 365.23 331.688 365.073 331.968 364.76C332.248 364.44 332.388 364.017 332.388 363.49V361.51C332.388 360.983 332.248 360.563 331.968 360.25C331.688 359.93 331.321 359.77 330.868 359.77H329.838C329.385 359.77 329.018 359.93 328.738 360.25C328.458 360.563 328.318 360.983 328.318 361.51V363.49C328.318 364.017 328.455 364.44 328.728 364.76C329.008 365.073 329.375 365.23 329.828 365.23H330.868Z"
            fill="black" />
        <path
            d="M336.04 366C335.84 366 335.677 365.947 335.55 365.84C335.43 365.733 335.35 365.557 335.31 365.31L334.1 359H335.05L336.07 364.68H336.08L337.74 359.37H338.11C338.244 359.37 338.354 359.41 338.44 359.49C338.534 359.563 338.607 359.687 338.66 359.86L340.11 364.68H340.12L341.14 359H342.09L340.88 365.31C340.834 365.543 340.75 365.717 340.63 365.83C340.517 365.943 340.357 366 340.15 366H339.75L338.12 360.64H338.11L336.44 366H336.04Z"
            fill="black" />
        <path
            d="M343.875 366C343.642 366 343.455 365.933 343.315 365.8C343.182 365.667 343.115 365.483 343.115 365.25V359H348.025V359.83H344.065V362.01H347.725V362.83H344.065V365.17H348.025V366H343.875Z"
            fill="black" />
        <path
            d="M349.209 359H352.719C353.259 359 353.692 359.153 354.019 359.46C354.352 359.76 354.519 360.157 354.519 360.65V361.37C354.519 361.717 354.409 362.023 354.189 362.29C353.975 362.557 353.682 362.75 353.309 362.87V362.88C353.702 363.113 353.995 363.54 354.189 364.16L354.739 366H353.759L353.219 364.2C353.125 363.887 352.975 363.64 352.769 363.46C352.569 363.28 352.339 363.19 352.079 363.19H350.159V366H349.209V359ZM352.459 362.35C352.792 362.35 353.059 362.26 353.259 362.08C353.465 361.9 353.569 361.663 353.569 361.37V360.64C353.569 360.4 353.489 360.207 353.329 360.06C353.169 359.913 352.959 359.84 352.699 359.84H350.159V362.35H352.459Z"
            fill="black" />
        <path
            d="M357.691 366.08C357.044 366.08 356.527 365.887 356.141 365.5C355.754 365.113 355.561 364.593 355.561 363.94H356.491C356.491 364.333 356.601 364.647 356.821 364.88C357.047 365.113 357.344 365.23 357.711 365.23H358.821C359.187 365.23 359.481 365.153 359.701 365C359.921 364.84 360.031 364.63 360.031 364.37V363.83C360.031 363.623 359.951 363.45 359.791 363.31C359.637 363.17 359.417 363.077 359.131 363.03L357.311 362.73C356.777 362.643 356.364 362.46 356.071 362.18C355.784 361.9 355.641 361.55 355.641 361.13V360.58C355.641 360.08 355.831 359.68 356.211 359.38C356.597 359.073 357.104 358.92 357.731 358.92H358.861C359.254 358.92 359.601 359.003 359.901 359.17C360.207 359.33 360.444 359.56 360.611 359.86C360.777 360.153 360.861 360.493 360.861 360.88H359.921C359.921 360.547 359.824 360.28 359.631 360.08C359.437 359.873 359.181 359.77 358.861 359.77H357.731C357.391 359.77 357.114 359.847 356.901 360C356.694 360.147 356.591 360.35 356.591 360.61V361.06C356.591 361.273 356.664 361.45 356.811 361.59C356.964 361.73 357.181 361.827 357.461 361.88L359.261 362.19C359.814 362.283 360.237 362.467 360.531 362.74C360.831 363.007 360.981 363.343 360.981 363.75V364.4C360.981 364.907 360.784 365.313 360.391 365.62C360.004 365.927 359.487 366.08 358.841 366.08H357.691Z"
            fill="black" />
        <rect x="163" y="352" width="31" height="21" fill="#555555" />
        <rect x="194" y="352" width="44" height="21" fill="#F2E174" />
        <path
            d="M200.74 359H204.25C204.79 359 205.223 359.153 205.55 359.46C205.883 359.76 206.05 360.157 206.05 360.65V361.37C206.05 361.717 205.94 362.023 205.72 362.29C205.507 362.557 205.213 362.75 204.84 362.87V362.88C205.233 363.113 205.527 363.54 205.72 364.16L206.27 366H205.29L204.75 364.2C204.657 363.887 204.507 363.64 204.3 363.46C204.1 363.28 203.87 363.19 203.61 363.19H201.69V366H200.74V359ZM203.99 362.35C204.323 362.35 204.59 362.26 204.79 362.08C204.997 361.9 205.1 361.663 205.1 361.37V360.64C205.1 360.4 205.02 360.207 204.86 360.06C204.7 359.913 204.49 359.84 204.23 359.84H201.69V362.35H203.99Z"
            fill="black" />
        <path
            d="M208.092 366C207.858 366 207.672 365.933 207.532 365.8C207.398 365.667 207.332 365.483 207.332 365.25V359H212.242V359.83H208.282V362.01H211.942V362.83H208.282V365.17H212.242V366H208.092Z"
            fill="black" />
        <path
            d="M213.426 359H216.916C217.469 359 217.912 359.157 218.246 359.47C218.586 359.777 218.756 360.187 218.756 360.7V361.7C218.756 362.24 218.576 362.677 218.216 363.01C217.862 363.337 217.392 363.5 216.806 363.5H214.376V366H213.426V359ZM216.786 362.66C217.092 362.66 217.339 362.57 217.526 362.39C217.712 362.203 217.806 361.96 217.806 361.66V360.71C217.806 360.45 217.722 360.24 217.556 360.08C217.389 359.92 217.169 359.84 216.896 359.84H214.376V362.66H216.786Z"
            fill="black" />
        <path
            d="M222.004 366.08C221.517 366.08 221.087 365.973 220.714 365.76C220.347 365.547 220.06 365.247 219.854 364.86C219.654 364.473 219.554 364.023 219.554 363.51V361.49C219.554 360.977 219.654 360.527 219.854 360.14C220.06 359.753 220.35 359.453 220.724 359.24C221.097 359.027 221.527 358.92 222.014 358.92H223.074C223.56 358.92 223.987 359.027 224.354 359.24C224.727 359.453 225.014 359.753 225.214 360.14C225.42 360.527 225.524 360.977 225.524 361.49V363.51C225.524 364.023 225.42 364.473 225.214 364.86C225.014 365.247 224.727 365.547 224.354 365.76C223.98 365.973 223.554 366.08 223.074 366.08H222.004ZM223.054 365.23C223.507 365.23 223.874 365.073 224.154 364.76C224.434 364.44 224.574 364.017 224.574 363.49V361.51C224.574 360.983 224.434 360.563 224.154 360.25C223.874 359.93 223.507 359.77 223.054 359.77H222.024C221.57 359.77 221.204 359.93 220.924 360.25C220.644 360.563 220.504 360.983 220.504 361.51V363.49C220.504 364.017 220.64 364.44 220.914 364.76C221.194 365.073 221.56 365.23 222.014 365.23H223.054Z"
            fill="black" />
        <path
            d="M228.694 366.08C228.048 366.08 227.531 365.887 227.144 365.5C226.758 365.113 226.564 364.593 226.564 363.94H227.494C227.494 364.333 227.604 364.647 227.824 364.88C228.051 365.113 228.348 365.23 228.714 365.23H229.824C230.191 365.23 230.484 365.153 230.704 365C230.924 364.84 231.034 364.63 231.034 364.37V363.83C231.034 363.623 230.954 363.45 230.794 363.31C230.641 363.17 230.421 363.077 230.134 363.03L228.314 362.73C227.781 362.643 227.368 362.46 227.074 362.18C226.788 361.9 226.644 361.55 226.644 361.13V360.58C226.644 360.08 226.834 359.68 227.214 359.38C227.601 359.073 228.108 358.92 228.734 358.92H229.864C230.258 358.92 230.604 359.003 230.904 359.17C231.211 359.33 231.448 359.56 231.614 359.86C231.781 360.153 231.864 360.493 231.864 360.88H230.924C230.924 360.547 230.828 360.28 230.634 360.08C230.441 359.873 230.184 359.77 229.864 359.77H228.734C228.394 359.77 228.118 359.847 227.904 360C227.698 360.147 227.594 360.35 227.594 360.61V361.06C227.594 361.273 227.668 361.45 227.814 361.59C227.968 361.73 228.184 361.827 228.464 361.88L230.264 362.19C230.818 362.283 231.241 362.467 231.534 362.74C231.834 363.007 231.984 363.343 231.984 363.75V364.4C231.984 364.907 231.788 365.313 231.394 365.62C231.008 365.927 230.491 366.08 229.844 366.08H228.694Z"
            fill="black" />
        <rect x="60" y="352" width="31" height="21" fill="#555555" />
        <rect x="91" y="352" width="44" height="21" fill="#8CECFF" />
        <path
            d="M100.63 366.08C99.9833 366.08 99.4667 365.887 99.08 365.5C98.6933 365.113 98.5 364.593 98.5 363.94H99.43C99.43 364.333 99.54 364.647 99.76 364.88C99.9867 365.113 100.283 365.23 100.65 365.23H101.76C102.127 365.23 102.42 365.153 102.64 365C102.86 364.84 102.97 364.63 102.97 364.37V363.83C102.97 363.623 102.89 363.45 102.73 363.31C102.577 363.17 102.357 363.077 102.07 363.03L100.25 362.73C99.7167 362.643 99.3033 362.46 99.01 362.18C98.7233 361.9 98.58 361.55 98.58 361.13V360.58C98.58 360.08 98.77 359.68 99.15 359.38C99.5367 359.073 100.043 358.92 100.67 358.92H101.8C102.193 358.92 102.54 359.003 102.84 359.17C103.147 359.33 103.383 359.56 103.55 359.86C103.717 360.153 103.8 360.493 103.8 360.88H102.86C102.86 360.547 102.763 360.28 102.57 360.08C102.377 359.873 102.12 359.77 101.8 359.77H100.67C100.33 359.77 100.053 359.847 99.84 360C99.6333 360.147 99.53 360.35 99.53 360.61V361.06C99.53 361.273 99.6033 361.45 99.75 361.59C99.9033 361.73 100.12 361.827 100.4 361.88L102.2 362.19C102.753 362.283 103.177 362.467 103.47 362.74C103.77 363.007 103.92 363.343 103.92 363.75V364.4C103.92 364.907 103.723 365.313 103.33 365.62C102.943 365.927 102.427 366.08 101.78 366.08H100.63Z"
            fill="black" />
        <path d="M106.671 359.83H104.451V359H109.841V359.83H107.621V366H106.671V359.83Z"
            fill="black" />
        <path
            d="M113.834 364.16H110.914L110.234 366H109.244L111.954 359H112.384C112.671 359 112.874 359.157 112.994 359.47L115.504 366H114.524L113.834 364.16ZM111.194 363.36H113.554L112.384 360.2H112.374L111.194 363.36Z"
            fill="black" />
        <path
            d="M116.406 359H119.916C120.456 359 120.889 359.153 121.216 359.46C121.549 359.76 121.716 360.157 121.716 360.65V361.37C121.716 361.717 121.606 362.023 121.386 362.29C121.173 362.557 120.879 362.75 120.506 362.87V362.88C120.899 363.113 121.193 363.54 121.386 364.16L121.936 366H120.956L120.416 364.2C120.323 363.887 120.173 363.64 119.966 363.46C119.766 363.28 119.536 363.19 119.276 363.19H117.356V366H116.406V359ZM119.656 362.35C119.989 362.35 120.256 362.26 120.456 362.08C120.663 361.9 120.766 361.663 120.766 361.37V360.64C120.766 360.4 120.686 360.207 120.526 360.06C120.366 359.913 120.156 359.84 119.896 359.84H117.356V362.35H119.656Z"
            fill="black" />
        <path
            d="M124.888 366.08C124.241 366.08 123.724 365.887 123.338 365.5C122.951 365.113 122.758 364.593 122.758 363.94H123.688C123.688 364.333 123.798 364.647 124.018 364.88C124.244 365.113 124.541 365.23 124.908 365.23H126.018C126.384 365.23 126.678 365.153 126.898 365C127.118 364.84 127.228 364.63 127.228 364.37V363.83C127.228 363.623 127.148 363.45 126.988 363.31C126.834 363.17 126.614 363.077 126.328 363.03L124.508 362.73C123.974 362.643 123.561 362.46 123.268 362.18C122.981 361.9 122.838 361.55 122.838 361.13V360.58C122.838 360.08 123.028 359.68 123.408 359.38C123.794 359.073 124.301 358.92 124.928 358.92H126.058C126.451 358.92 126.798 359.003 127.098 359.17C127.404 359.33 127.641 359.56 127.808 359.86C127.974 360.153 128.058 360.493 128.058 360.88H127.118C127.118 360.547 127.021 360.28 126.828 360.08C126.634 359.873 126.378 359.77 126.058 359.77H124.928C124.588 359.77 124.311 359.847 124.098 360C123.891 360.147 123.788 360.35 123.788 360.61V361.06C123.788 361.273 123.861 361.45 124.008 361.59C124.161 361.73 124.378 361.827 124.658 361.88L126.458 362.19C127.011 362.283 127.434 362.467 127.728 362.74C128.028 363.007 128.178 363.343 128.178 363.75V364.4C128.178 364.907 127.981 365.313 127.588 365.62C127.201 365.927 126.684 366.08 126.038 366.08H124.888Z"
            fill="black" />
    </g>
    <defs>
        <clipPath id="clip0_21_68">
            <rect width="1200" height="400" fill="white" />
        </clipPath>
    </defs>
</svg>